<svg xmlns="http://www.w3.org/2000/svg" xmlns:xlink="http://www.w3.org/1999/xlink" width="500" zoomAndPan="magnify" viewBox="0 0 375 374.999991" height="500" preserveAspectRatio="xMidYMid meet" version="1.0"><defs><clipPath id="03267a943c"><path d="M 110.636719 110.636719 L 264.386719 110.636719 L 264.386719 264.386719 L 110.636719 264.386719 Z M 110.636719 110.636719 " clip-rule="nonzero"/></clipPath><clipPath id="a0d5742fe6"><path d="M 115.800781 115.800781 L 259.050781 115.800781 L 259.050781 259.050781 L 115.800781 259.050781 Z M 115.800781 115.800781 " clip-rule="nonzero"/></clipPath></defs><g clip-path="url(#03267a943c)"><path fill="#7d177c" d="M 187.511719 110.636719 C 145.054688 110.636719 110.636719 145.054688 110.636719 187.511719 C 110.636719 229.964844 145.054688 264.386719 187.511719 264.386719 C 229.964844 264.386719 264.386719 229.964844 264.386719 187.511719 C 264.386719 145.054688 229.964844 110.636719 187.511719 110.636719 " fill-opacity="1" fill-rule="nonzero"/></g><path fill="#ffffff" d="M 187.425781 223.238281 C 186.957031 223.238281 186.488281 223.191406 186.027344 223.101562 C 185.566406 223.007812 185.121094 222.875 184.683594 222.691406 C 184.25 222.511719 183.835938 222.292969 183.445312 222.03125 C 183.054688 221.769531 182.695312 221.472656 182.363281 221.140625 C 182.027344 220.808594 181.730469 220.445312 181.46875 220.054688 C 181.210938 219.664062 180.988281 219.25 180.808594 218.816406 C 180.628906 218.382812 180.492188 217.933594 180.402344 217.472656 C 180.308594 217.011719 180.261719 216.546875 180.261719 216.074219 L 180.261719 176.066406 L 178.164062 178.164062 C 177.832031 178.488281 177.46875 178.777344 177.078125 179.027344 C 176.6875 179.28125 176.277344 179.492188 175.84375 179.664062 C 175.410156 179.839844 174.96875 179.96875 174.511719 180.054688 C 174.054688 180.136719 173.59375 180.179688 173.125 180.175781 C 172.660156 180.171875 172.203125 180.121094 171.746094 180.027344 C 171.289062 179.933594 170.847656 179.796875 170.417969 179.617188 C 169.992188 179.4375 169.582031 179.21875 169.195312 178.960938 C 168.8125 178.699219 168.453125 178.40625 168.125 178.078125 C 167.796875 177.75 167.5 177.390625 167.242188 177.003906 C 166.984375 176.621094 166.761719 176.210938 166.582031 175.78125 C 166.402344 175.355469 166.265625 174.910156 166.171875 174.457031 C 166.078125 174 166.03125 173.539062 166.027344 173.074219 C 166.023438 172.609375 166.0625 172.148438 166.148438 171.691406 C 166.234375 171.234375 166.363281 170.789062 166.535156 170.359375 C 166.707031 169.925781 166.921875 169.515625 167.171875 169.125 C 167.425781 168.734375 167.714844 168.371094 168.039062 168.039062 L 182.363281 153.710938 C 182.863281 153.210938 183.425781 152.792969 184.050781 152.460938 C 184.675781 152.125 185.335938 151.890625 186.027344 151.753906 C 186.722656 151.613281 187.421875 151.582031 188.128906 151.648438 C 188.832031 151.71875 189.511719 151.890625 190.167969 152.160156 C 190.820312 152.429688 191.421875 152.792969 191.96875 153.242188 C 192.515625 153.691406 192.988281 154.210938 193.382812 154.796875 C 193.773438 155.386719 194.074219 156.019531 194.28125 156.699219 C 194.484375 157.375 194.589844 158.066406 194.589844 158.777344 L 194.589844 216.074219 C 194.589844 216.546875 194.542969 217.011719 194.449219 217.472656 C 194.359375 217.933594 194.222656 218.382812 194.042969 218.816406 C 193.863281 219.25 193.644531 219.664062 193.382812 220.054688 C 193.121094 220.445312 192.824219 220.808594 192.492188 221.140625 C 192.15625 221.472656 191.796875 221.769531 191.40625 222.03125 C 191.015625 222.292969 190.601562 222.511719 190.167969 222.691406 C 189.734375 222.875 189.285156 223.007812 188.824219 223.101562 C 188.363281 223.191406 187.894531 223.238281 187.425781 223.238281 Z M 187.425781 223.238281 " fill-opacity="1" fill-rule="nonzero"/><g clip-path="url(#a0d5742fe6)"><path fill="#ffffff" d="M 187.425781 259.050781 C 186.253906 259.050781 185.082031 259.023438 183.910156 258.964844 C 182.742188 258.90625 181.570312 258.820312 180.40625 258.707031 C 179.238281 258.589844 178.074219 258.449219 176.917969 258.277344 C 175.757812 258.105469 174.601562 257.902344 173.453125 257.675781 C 172.304688 257.445312 171.160156 257.1875 170.023438 256.90625 C 168.886719 256.621094 167.757812 256.308594 166.632812 255.96875 C 165.511719 255.625 164.398438 255.257812 163.296875 254.863281 C 162.191406 254.46875 161.097656 254.046875 160.015625 253.597656 C 158.933594 253.148438 157.863281 252.675781 156.800781 252.175781 C 155.742188 251.671875 154.695312 251.144531 153.664062 250.59375 C 152.628906 250.042969 151.609375 249.464844 150.601562 248.859375 C 149.597656 248.257812 148.609375 247.632812 147.632812 246.980469 C 146.660156 246.328125 145.699219 245.652344 144.757812 244.957031 C 143.816406 244.257812 142.894531 243.535156 141.988281 242.792969 C 141.082031 242.050781 140.195312 241.285156 139.324219 240.496094 C 138.457031 239.710938 137.609375 238.902344 136.78125 238.074219 C 135.949219 237.242188 135.144531 236.394531 134.355469 235.527344 C 133.566406 234.65625 132.804688 233.769531 132.058594 232.863281 C 131.316406 231.957031 130.59375 231.035156 129.894531 230.09375 C 129.199219 229.152344 128.523438 228.195312 127.871094 227.21875 C 127.222656 226.242188 126.59375 225.253906 125.992188 224.25 C 125.386719 223.242188 124.8125 222.222656 124.257812 221.191406 C 123.707031 220.15625 123.179688 219.109375 122.679688 218.050781 C 122.175781 216.988281 121.703125 215.917969 121.253906 214.835938 C 120.804688 213.753906 120.382812 212.660156 119.988281 211.554688 C 119.59375 210.453125 119.226562 209.339844 118.886719 208.21875 C 118.546875 207.097656 118.230469 205.964844 117.949219 204.828125 C 117.664062 203.691406 117.40625 202.550781 117.175781 201.398438 C 116.949219 200.25 116.75 199.09375 116.578125 197.9375 C 116.402344 196.777344 116.261719 195.613281 116.144531 194.445312 C 116.03125 193.28125 115.945312 192.109375 115.886719 190.941406 C 115.828125 189.769531 115.800781 188.597656 115.800781 187.425781 C 115.800781 186.253906 115.828125 185.082031 115.886719 183.910156 C 115.945312 182.742188 116.03125 181.570312 116.144531 180.40625 C 116.261719 179.238281 116.402344 178.074219 116.578125 176.917969 C 116.75 175.757812 116.949219 174.601562 117.175781 173.453125 C 117.40625 172.304688 117.664062 171.160156 117.949219 170.023438 C 118.230469 168.886719 118.546875 167.757812 118.886719 166.632812 C 119.226562 165.511719 119.59375 164.398438 119.988281 163.296875 C 120.382812 162.191406 120.804688 161.097656 121.253906 160.015625 C 121.703125 158.933594 122.175781 157.863281 122.679688 156.800781 C 123.179688 155.742188 123.707031 154.695312 124.257812 153.664062 C 124.8125 152.628906 125.386719 151.609375 125.992188 150.601562 C 126.59375 149.597656 127.222656 148.609375 127.871094 147.632812 C 128.523438 146.660156 129.199219 145.699219 129.894531 144.757812 C 130.59375 143.816406 131.316406 142.894531 132.058594 141.988281 C 132.804688 141.082031 133.566406 140.195312 134.355469 139.324219 C 135.144531 138.457031 135.949219 137.609375 136.78125 136.78125 C 137.609375 135.949219 138.457031 135.144531 139.324219 134.355469 C 140.195312 133.566406 141.082031 132.804688 141.988281 132.058594 C 142.894531 131.316406 143.816406 130.59375 144.757812 129.894531 C 145.699219 129.199219 146.660156 128.523438 147.632812 127.871094 C 148.609375 127.222656 149.597656 126.59375 150.601562 125.992188 C 151.609375 125.386719 152.628906 124.8125 153.664062 124.257812 C 154.695312 123.707031 155.742188 123.179688 156.800781 122.679688 C 157.863281 122.175781 158.933594 121.703125 160.015625 121.253906 C 161.097656 120.804688 162.191406 120.382812 163.296875 119.988281 C 164.398438 119.59375 165.511719 119.226562 166.632812 118.886719 C 167.757812 118.546875 168.886719 118.230469 170.023438 117.949219 C 171.160156 117.664062 172.304688 117.40625 173.453125 117.175781 C 174.601562 116.949219 175.757812 116.75 176.917969 116.578125 C 178.074219 116.402344 179.238281 116.261719 180.40625 116.144531 C 181.570312 116.03125 182.742188 115.945312 183.910156 115.886719 C 185.082031 115.828125 186.253906 115.800781 187.425781 115.800781 C 188.597656 115.800781 189.769531 115.828125 190.941406 115.886719 C 192.109375 115.945312 193.28125 116.03125 194.445312 116.144531 C 195.613281 116.261719 196.777344 116.402344 197.9375 116.578125 C 199.09375 116.75 200.25 116.949219 201.398438 117.175781 C 202.550781 117.40625 203.691406 117.664062 204.828125 117.949219 C 205.964844 118.230469 207.097656 118.546875 208.21875 118.886719 C 209.339844 119.226562 210.453125 119.59375 211.554688 119.988281 C 212.660156 120.382812 213.753906 120.804688 214.835938 121.253906 C 215.917969 121.703125 216.988281 122.175781 218.050781 122.679688 C 219.109375 123.179688 220.15625 123.707031 221.191406 124.257812 C 222.222656 124.8125 223.242188 125.386719 224.25 125.992188 C 225.253906 126.59375 226.242188 127.222656 227.21875 127.871094 C 228.195312 128.523438 229.152344 129.199219 230.09375 129.894531 C 231.035156 130.59375 231.957031 131.316406 232.863281 132.058594 C 233.769531 132.804688 234.65625 133.566406 235.527344 134.355469 C 236.394531 135.144531 237.242188 135.949219 238.074219 136.78125 C 238.902344 137.609375 239.710938 138.457031 240.496094 139.324219 C 241.285156 140.195312 242.050781 141.082031 242.792969 141.988281 C 243.535156 142.894531 244.257812 143.816406 244.957031 144.757812 C 245.652344 145.699219 246.328125 146.660156 246.980469 147.632812 C 247.632812 148.609375 248.257812 149.597656 248.859375 150.601562 C 249.464844 151.609375 250.042969 152.628906 250.59375 153.664062 C 251.144531 154.695312 251.671875 155.742188 252.175781 156.800781 C 252.675781 157.863281 253.148438 158.933594 253.597656 160.015625 C 254.046875 161.097656 254.46875 162.191406 254.863281 163.296875 C 255.257812 164.398438 255.625 165.511719 255.96875 166.632812 C 256.308594 167.757812 256.621094 168.886719 256.90625 170.023438 C 257.1875 171.160156 257.445312 172.304688 257.675781 173.453125 C 257.902344 174.601562 258.105469 175.757812 258.277344 176.917969 C 258.449219 178.074219 258.589844 179.238281 258.707031 180.40625 C 258.820312 181.570312 258.90625 182.742188 258.964844 183.910156 C 259.023438 185.082031 259.050781 186.253906 259.050781 187.425781 C 259.050781 188.597656 259.019531 189.769531 258.960938 190.9375 C 258.902344 192.109375 258.816406 193.277344 258.699219 194.445312 C 258.582031 195.609375 258.4375 196.773438 258.265625 197.929688 C 258.09375 199.089844 257.890625 200.246094 257.660156 201.394531 C 257.429688 202.542969 257.175781 203.6875 256.886719 204.820312 C 256.601562 205.957031 256.289062 207.085938 255.949219 208.207031 C 255.609375 209.328125 255.238281 210.441406 254.84375 211.542969 C 254.449219 212.648438 254.027344 213.742188 253.578125 214.824219 C 253.128906 215.90625 252.652344 216.976562 252.152344 218.035156 C 251.648438 219.09375 251.121094 220.140625 250.570312 221.171875 C 250.015625 222.207031 249.4375 223.226562 248.835938 224.230469 C 248.234375 225.234375 247.605469 226.226562 246.953125 227.199219 C 246.304688 228.171875 245.628906 229.132812 244.929688 230.070312 C 244.230469 231.011719 243.511719 231.9375 242.769531 232.84375 C 242.023438 233.75 241.257812 234.636719 240.472656 235.503906 C 239.683594 236.371094 238.878906 237.21875 238.046875 238.046875 C 237.21875 238.878906 236.371094 239.683594 235.503906 240.472656 C 234.636719 241.257812 233.75 242.023438 232.84375 242.769531 C 231.9375 243.511719 231.011719 244.230469 230.070312 244.929688 C 229.132812 245.628906 228.171875 246.304688 227.199219 246.953125 C 226.226562 247.605469 225.234375 248.234375 224.230469 248.835938 C 223.226562 249.4375 222.207031 250.015625 221.171875 250.570312 C 220.140625 251.121094 219.09375 251.648438 218.035156 252.152344 C 216.976562 252.652344 215.90625 253.128906 214.824219 253.578125 C 213.742188 254.027344 212.648438 254.449219 211.542969 254.84375 C 210.441406 255.238281 209.328125 255.609375 208.207031 255.949219 C 207.085938 256.289062 205.957031 256.601562 204.820312 256.886719 C 203.6875 257.175781 202.542969 257.429688 201.394531 257.660156 C 200.246094 257.890625 199.089844 258.09375 197.929688 258.265625 C 196.773438 258.4375 195.609375 258.582031 194.445312 258.699219 C 193.277344 258.816406 192.109375 258.902344 190.9375 258.960938 C 189.769531 259.019531 188.597656 259.050781 187.425781 259.050781 Z M 187.425781 130.125 C 185.550781 130.125 183.675781 130.21875 181.808594 130.402344 C 179.941406 130.585938 178.089844 130.859375 176.246094 131.226562 C 174.40625 131.59375 172.589844 132.046875 170.792969 132.59375 C 168.996094 133.136719 167.230469 133.769531 165.5 134.488281 C 163.765625 135.207031 162.070312 136.007812 160.414062 136.890625 C 158.761719 137.777344 157.152344 138.738281 155.59375 139.78125 C 154.03125 140.824219 152.527344 141.941406 151.074219 143.132812 C 149.625 144.324219 148.234375 145.582031 146.910156 146.910156 C 145.582031 148.234375 144.324219 149.625 143.132812 151.074219 C 141.941406 152.527344 140.824219 154.03125 139.78125 155.59375 C 138.742188 157.152344 137.777344 158.761719 136.890625 160.414062 C 136.007812 162.070312 135.207031 163.765625 134.488281 165.5 C 133.769531 167.230469 133.136719 168.996094 132.59375 170.792969 C 132.046875 172.589844 131.59375 174.40625 131.226562 176.246094 C 130.859375 178.089844 130.585938 179.941406 130.402344 181.808594 C 130.21875 183.675781 130.125 185.550781 130.125 187.425781 C 130.125 189.300781 130.21875 191.175781 130.402344 193.042969 C 130.585938 194.910156 130.859375 196.765625 131.226562 198.605469 C 131.59375 200.445312 132.046875 202.261719 132.59375 204.058594 C 133.136719 205.855469 133.769531 207.621094 134.488281 209.355469 C 135.207031 211.085938 136.007812 212.78125 136.890625 214.4375 C 137.777344 216.09375 138.742188 217.699219 139.78125 219.261719 C 140.824219 220.820312 141.941406 222.324219 143.132812 223.777344 C 144.324219 225.226562 145.582031 226.617188 146.910156 227.941406 C 148.234375 229.269531 149.625 230.527344 151.074219 231.71875 C 152.527344 232.910156 154.03125 234.027344 155.59375 235.070312 C 157.152344 236.113281 158.761719 237.074219 160.414062 237.960938 C 162.070312 238.84375 163.765625 239.644531 165.5 240.363281 C 167.230469 241.082031 168.996094 241.714844 170.792969 242.257812 C 172.589844 242.804688 174.40625 243.257812 176.246094 243.625 C 178.089844 243.992188 179.941406 244.265625 181.808594 244.449219 C 183.675781 244.632812 185.550781 244.726562 187.425781 244.726562 C 189.300781 244.726562 191.175781 244.632812 193.042969 244.449219 C 194.910156 244.265625 196.765625 243.992188 198.605469 243.625 C 200.445312 243.257812 202.261719 242.804688 204.058594 242.257812 C 205.855469 241.714844 207.621094 241.082031 209.355469 240.363281 C 211.085938 239.644531 212.78125 238.84375 214.4375 237.960938 C 216.09375 237.074219 217.699219 236.113281 219.261719 235.070312 C 220.820312 234.027344 222.324219 232.910156 223.777344 231.71875 C 225.226562 230.527344 226.617188 229.269531 227.941406 227.941406 C 229.269531 226.617188 230.527344 225.226562 231.71875 223.777344 C 232.910156 222.324219 234.027344 220.820312 235.070312 219.261719 C 236.113281 217.699219 237.074219 216.09375 237.960938 214.4375 C 238.84375 212.78125 239.644531 211.085938 240.363281 209.355469 C 241.082031 207.621094 241.714844 205.855469 242.257812 204.058594 C 242.804688 202.261719 243.257812 200.445312 243.625 198.605469 C 243.992188 196.765625 244.265625 194.910156 244.449219 193.042969 C 244.632812 191.175781 244.726562 189.300781 244.726562 187.425781 C 244.722656 185.550781 244.628906 183.679688 244.445312 181.8125 C 244.257812 179.945312 243.980469 178.089844 243.613281 176.253906 C 243.246094 174.414062 242.789062 172.59375 242.242188 170.800781 C 241.699219 169.003906 241.066406 167.242188 240.347656 165.507812 C 239.628906 163.777344 238.824219 162.082031 237.941406 160.429688 C 237.054688 158.773438 236.089844 157.167969 235.046875 155.609375 C 234.003906 154.046875 232.890625 152.542969 231.699219 151.09375 C 230.507812 149.644531 229.25 148.253906 227.921875 146.929688 C 226.597656 145.601562 225.207031 144.34375 223.757812 143.152344 C 222.308594 141.964844 220.804688 140.847656 219.246094 139.804688 C 217.683594 138.761719 216.078125 137.796875 214.421875 136.910156 C 212.769531 136.027344 211.074219 135.226562 209.34375 134.507812 C 207.609375 133.785156 205.847656 133.15625 204.050781 132.609375 C 202.257812 132.0625 200.441406 131.605469 198.601562 131.238281 C 196.761719 130.871094 194.90625 130.59375 193.039062 130.40625 C 191.171875 130.222656 189.300781 130.128906 187.425781 130.125 Z M 187.425781 130.125 " fill-opacity="1" fill-rule="nonzero"/></g></svg>