<svg xmlns="http://www.w3.org/2000/svg" xmlns:xlink="http://www.w3.org/1999/xlink" width="500" zoomAndPan="magnify" viewBox="0 0 375 374.999991" height="500" preserveAspectRatio="xMidYMid meet" version="1.0"><defs><clipPath id="4940ddec3b"><path d="M 110.636719 110.636719 L 264.386719 110.636719 L 264.386719 264.386719 L 110.636719 264.386719 Z M 110.636719 110.636719 " clip-rule="nonzero"/></clipPath><clipPath id="14d66071f6"><path d="M 117.78125 117.78125 L 257.28125 117.78125 L 257.28125 257.28125 L 117.78125 257.28125 Z M 117.78125 117.78125 " clip-rule="nonzero"/></clipPath></defs><g clip-path="url(#4940ddec3b)"><path fill="#7d177c" d="M 187.511719 110.636719 C 145.054688 110.636719 110.636719 145.054688 110.636719 187.511719 C 110.636719 229.964844 145.054688 264.386719 187.511719 264.386719 C 229.964844 264.386719 264.386719 229.964844 264.386719 187.511719 C 264.386719 145.054688 229.964844 110.636719 187.511719 110.636719 " fill-opacity="1" fill-rule="nonzero"/></g><g clip-path="url(#14d66071f6)"><path fill="#ffffff" d="M 187.53125 117.78125 C 149.011719 117.78125 117.78125 149.011719 117.78125 187.53125 C 117.78125 226.050781 149.011719 257.28125 187.53125 257.28125 C 226.050781 257.28125 257.28125 226.050781 257.28125 187.53125 C 257.28125 149.011719 226.050781 117.78125 187.53125 117.78125 Z M 208.550781 216.59375 L 167.1875 216.59375 L 167.1875 208.210938 L 185.902344 189.898438 C 193.972656 182.027344 195.996094 179.050781 195.996094 175.3125 C 195.996094 170.703125 192.257812 167.445312 187.015625 167.445312 C 181.453125 167.445312 177.640625 171.101562 177.640625 176.382812 L 177.640625 176.621094 L 166.515625 176.621094 L 166.515625 176.425781 C 166.515625 165.339844 175.015625 157.789062 187.414062 157.789062 C 199.378906 157.789062 207.71875 164.664062 207.71875 174.515625 C 207.71875 180.753906 204.339844 186.121094 194.40625 195.460938 L 183.441406 205.910156 L 183.441406 206.625 L 208.550781 206.625 Z M 245.65625 187.53125 C 245.65625 219.632812 219.632812 245.65625 187.53125 245.65625 C 155.429688 245.65625 129.40625 219.632812 129.40625 187.53125 C 129.40625 155.429688 155.429688 129.40625 187.53125 129.40625 C 219.632812 129.40625 245.65625 155.429688 245.65625 187.53125 Z M 245.65625 187.53125 " fill-opacity="1" fill-rule="nonzero"/></g></svg>