<svg xmlns="http://www.w3.org/2000/svg" xmlns:xlink="http://www.w3.org/1999/xlink" width="500" zoomAndPan="magnify" viewBox="0 0 375 374.999991" height="500" preserveAspectRatio="xMidYMid meet" version="1.0"><defs><clipPath id="81d31fe5f8"><path d="M 110.636719 110.636719 L 264.386719 110.636719 L 264.386719 264.386719 L 110.636719 264.386719 Z M 110.636719 110.636719 " clip-rule="nonzero"/></clipPath><clipPath id="3924aba7dc"><path d="M 116.636719 116.636719 L 258.386719 116.636719 L 258.386719 258.386719 L 116.636719 258.386719 Z M 116.636719 116.636719 " clip-rule="nonzero"/></clipPath></defs><g clip-path="url(#81d31fe5f8)"><path fill="#7d177c" d="M 187.511719 110.636719 C 145.054688 110.636719 110.636719 145.054688 110.636719 187.511719 C 110.636719 229.964844 145.054688 264.386719 187.511719 264.386719 C 229.964844 264.386719 264.386719 229.964844 264.386719 187.511719 C 264.386719 145.054688 229.964844 110.636719 187.511719 110.636719 " fill-opacity="1" fill-rule="nonzero"/></g><g clip-path="url(#3924aba7dc)"><path fill="#ffffff" d="M 187.511719 116.636719 C 148.371094 116.636719 116.636719 148.371094 116.636719 187.511719 C 116.636719 226.652344 148.371094 258.386719 187.511719 258.386719 C 226.652344 258.386719 258.386719 226.652344 258.386719 187.511719 C 258.386719 148.371094 226.652344 116.636719 187.511719 116.636719 Z M 187.226562 218.132812 C 174.226562 218.132812 165.425781 210.945312 164.902344 199.964844 L 176.570312 199.964844 C 176.9375 204.890625 181.097656 208 187.351562 208 C 193.445312 208 197.6875 204.566406 197.6875 199.601562 C 197.6875 194.515625 193.6875 191.359375 187.148438 191.359375 L 179.921875 191.359375 L 179.921875 182.277344 L 187.027344 182.277344 C 192.558594 182.277344 196.308594 179.046875 196.308594 174.28125 C 196.308594 169.597656 192.679688 166.609375 186.984375 166.609375 C 181.332031 166.609375 177.574219 169.796875 177.257812 174.847656 L 165.992188 174.847656 C 166.394531 163.824219 174.59375 156.878906 187.308594 156.878906 C 199.257812 156.878906 207.855469 163.417969 207.855469 172.585938 C 207.855469 179.328125 203.617188 184.574219 197.121094 185.910156 L 197.121094 186.636719 C 205.117188 187.523438 210.117188 192.855469 210.117188 200.527344 C 210.117188 210.746094 200.507812 218.132812 187.226562 218.132812 Z M 246.574219 187.511719 C 246.574219 220.128906 220.128906 246.574219 187.511719 246.574219 C 154.890625 246.574219 128.449219 220.128906 128.449219 187.511719 C 128.449219 154.890625 154.890625 128.449219 187.511719 128.449219 C 220.128906 128.449219 246.574219 154.890625 246.574219 187.511719 Z M 246.574219 187.511719 " fill-opacity="1" fill-rule="nonzero"/></g></svg>