<svg xmlns="http://www.w3.org/2000/svg" xmlns:xlink="http://www.w3.org/1999/xlink" width="500" zoomAndPan="magnify" viewBox="0 0 375 374.999991" height="500" preserveAspectRatio="xMidYMid meet" version="1.0"><path fill="#d4ccf2" d="M 163.796875 48.570312 C 159.839844 49.5625 156.003906 50.714844 152.363281 52 C 135.738281 57.859375 120.679688 67.886719 106.761719 78.53125 C 78.394531 100.242188 51.472656 126.761719 36.246094 159.578125 C 31.214844 170.414062 27.777344 181.972656 26.253906 193.828125 C 24.902344 204.324219 22.9375 219.355469 29.351562 228.601562 C 40.183594 244.203125 66.113281 233.070312 82.84375 242.046875 C 95.835938 249.015625 99.425781 265.917969 99.65625 280.667969 C 99.886719 295.417969 98.460938 311.28125 106.246094 323.804688 C 114.421875 336.957031 131.269531 342.792969 146.6875 341.421875 C 162.105469 340.054688 176.332031 332.636719 189.308594 324.195312 C 237.308594 292.957031 273.394531 246.757812 306.925781 200.3125 C 316.261719 187.375 325.671875 173.933594 329.425781 158.421875 C 333.175781 142.914062 330.027344 124.671875 317.648438 114.613281 C 298.117188 98.734375 262.984375 107.378906 249.839844 85.902344 C 246.546875 80.515625 245.414062 74.085938 242.664062 68.402344 C 236.304688 55.242188 221.820312 47.546875 207.355469 45.492188 C 193.648438 43.550781 177.953125 45.03125 163.796875 48.570312 Z M 163.796875 48.570312 " fill-opacity="1" fill-rule="nonzero"/><path fill="#ffffff" d="M 70.957031 78.234375 L 231.625 78.234375 L 231.625 281.96875 L 70.957031 281.96875 Z M 70.957031 78.234375 " fill-opacity="1" fill-rule="nonzero"/><path fill="#4e3699" d="M 231.625 286.914062 L 70.957031 286.914062 C 68.226562 286.914062 66.015625 284.699219 66.015625 281.96875 L 66.015625 78.234375 C 66.015625 75.5 68.226562 73.285156 70.957031 73.285156 L 231.625 73.285156 C 234.355469 73.285156 236.566406 75.5 236.566406 78.234375 L 236.566406 281.96875 C 236.566406 284.699219 234.355469 286.914062 231.625 286.914062 Z M 75.902344 277.019531 L 226.679688 277.019531 L 226.679688 83.179688 L 75.902344 83.179688 Z M 75.902344 277.019531 " fill-opacity="1" fill-rule="nonzero"/><path fill="#80c9ff" d="M 135.5 53.34375 L 167.078125 53.34375 L 167.078125 70.972656 L 135.5 70.972656 Z M 135.5 53.34375 " fill-opacity="1" fill-rule="nonzero"/><path fill="#4e3699" d="M 167.078125 75.917969 L 135.5 75.917969 C 132.773438 75.917969 130.558594 73.703125 130.558594 70.972656 L 130.558594 53.34375 C 130.558594 50.613281 132.769531 48.394531 135.5 48.394531 L 167.078125 48.394531 C 169.808594 48.394531 172.023438 50.609375 172.023438 53.34375 L 172.023438 70.972656 C 172.023438 73.703125 169.808594 75.917969 167.078125 75.917969 Z M 140.445312 66.023438 L 162.136719 66.023438 L 162.136719 58.289062 L 140.445312 58.289062 Z M 140.445312 66.023438 " fill-opacity="1" fill-rule="nonzero"/><path fill="#ff6a48" d="M 118.683594 68.269531 L 183.898438 68.269531 L 183.898438 85.707031 L 118.683594 85.707031 Z M 118.683594 68.269531 " fill-opacity="1" fill-rule="nonzero"/><path fill="#4e3699" d="M 183.898438 90.652344 L 118.683594 90.652344 C 115.953125 90.652344 113.738281 88.4375 113.738281 85.703125 L 113.738281 68.269531 C 113.738281 65.539062 115.953125 63.324219 118.683594 63.324219 L 183.898438 63.324219 C 186.625 63.324219 188.839844 65.539062 188.839844 68.269531 L 188.839844 85.707031 C 188.839844 88.4375 186.625 90.652344 183.898438 90.652344 Z M 123.625 80.757812 L 178.953125 80.757812 L 178.953125 73.21875 L 123.625 73.21875 Z M 123.625 80.757812 " fill-opacity="1" fill-rule="nonzero"/><path fill="#ffb829" d="M 121.140625 107.90625 L 97.964844 107.90625 C 95.234375 107.90625 93.019531 110.121094 93.019531 112.851562 L 93.019531 136.046875 C 93.019531 138.777344 95.234375 140.992188 97.964844 140.992188 L 121.140625 140.992188 C 123.871094 140.992188 126.085938 138.78125 126.085938 136.046875 L 126.085938 112.851562 C 126.085938 110.121094 123.871094 107.90625 121.140625 107.90625 Z M 121.140625 107.90625 " fill-opacity="1" fill-rule="nonzero"/><path fill="#4e3699" d="M 114.042969 133.425781 C 114.03125 133.425781 114.015625 133.425781 114 133.425781 C 112.675781 133.414062 111.410156 132.871094 110.488281 131.917969 L 101.300781 122.398438 C 99.402344 120.433594 99.457031 117.300781 101.421875 115.402344 C 103.386719 113.503906 106.515625 113.5625 108.414062 115.523438 L 114.105469 121.425781 L 133.933594 101.585938 C 135.863281 99.652344 138.996094 99.652344 140.921875 101.585938 C 142.855469 103.515625 142.855469 106.648438 140.921875 108.582031 L 117.539062 131.980469 C 116.613281 132.90625 115.355469 133.425781 114.042969 133.425781 Z M 114.042969 133.425781 " fill-opacity="1" fill-rule="nonzero"/><path fill="#ffb829" d="M 121.140625 164.984375 L 97.964844 164.984375 C 95.234375 164.984375 93.019531 167.199219 93.019531 169.933594 L 93.019531 193.125 C 93.019531 195.855469 95.234375 198.070312 97.964844 198.070312 L 121.140625 198.070312 C 123.871094 198.070312 126.085938 195.855469 126.085938 193.125 L 126.085938 169.933594 C 126.085938 167.199219 123.871094 164.984375 121.140625 164.984375 Z M 121.140625 164.984375 " fill-opacity="1" fill-rule="nonzero"/><path fill="#4e3699" d="M 114.042969 190.503906 C 114.03125 190.503906 114.015625 190.503906 114 190.503906 C 112.675781 190.492188 111.410156 189.949219 110.488281 188.996094 L 101.300781 179.476562 C 99.402344 177.511719 99.457031 174.382812 101.421875 172.480469 C 103.386719 170.582031 106.515625 170.640625 108.414062 172.601562 L 114.105469 178.503906 L 133.933594 158.664062 C 135.863281 156.730469 138.996094 156.730469 140.921875 158.664062 C 142.855469 160.59375 142.855469 163.726562 140.921875 165.660156 L 117.539062 189.058594 C 116.613281 189.984375 115.355469 190.503906 114.042969 190.503906 Z M 114.042969 190.503906 " fill-opacity="1" fill-rule="nonzero"/><path fill="#ffb829" d="M 121.140625 222.0625 L 97.964844 222.0625 C 95.234375 222.0625 93.019531 224.277344 93.019531 227.011719 L 93.019531 250.203125 C 93.019531 252.9375 95.234375 255.152344 97.964844 255.152344 L 121.140625 255.152344 C 123.871094 255.152344 126.085938 252.9375 126.085938 250.203125 L 126.085938 227.011719 C 126.085938 224.277344 123.871094 222.0625 121.140625 222.0625 Z M 121.140625 222.0625 " fill-opacity="1" fill-rule="nonzero"/><path fill="#4e3699" d="M 114.042969 247.585938 C 114.03125 247.585938 114.015625 247.585938 114 247.585938 C 112.675781 247.570312 111.410156 247.027344 110.488281 246.074219 L 101.300781 236.554688 C 99.402344 234.589844 99.457031 231.460938 101.421875 229.5625 C 103.386719 227.660156 106.515625 227.71875 108.414062 229.683594 L 114.105469 235.582031 L 133.933594 215.742188 C 135.863281 213.808594 138.996094 213.8125 140.925781 215.742188 C 142.855469 217.671875 142.855469 220.804688 140.921875 222.738281 L 117.539062 246.136719 C 116.613281 247.0625 115.355469 247.585938 114.042969 247.585938 Z M 114.042969 247.585938 " fill-opacity="1" fill-rule="nonzero"/><path fill="#d4ccf2" d="M 201.042969 129.398438 L 154.746094 129.398438 C 152.011719 129.398438 149.800781 127.183594 149.800781 124.449219 C 149.800781 121.71875 152.011719 119.503906 154.746094 119.503906 L 201.042969 119.503906 C 203.769531 119.503906 205.984375 121.71875 205.984375 124.449219 C 205.984375 127.183594 203.769531 129.398438 201.042969 129.398438 Z M 201.042969 129.398438 " fill-opacity="1" fill-rule="nonzero"/><path fill="#d4ccf2" d="M 201.042969 186.476562 L 154.746094 186.476562 C 152.011719 186.476562 149.800781 184.261719 149.800781 181.527344 C 149.800781 178.796875 152.011719 176.582031 154.746094 176.582031 L 201.042969 176.582031 C 203.769531 176.582031 205.984375 178.796875 205.984375 181.527344 C 205.984375 184.261719 203.769531 186.476562 201.042969 186.476562 Z M 201.042969 186.476562 " fill-opacity="1" fill-rule="nonzero"/><path fill="#d4ccf2" d="M 201.042969 243.554688 L 154.746094 243.554688 C 152.011719 243.554688 149.800781 241.339844 149.800781 238.605469 C 149.800781 235.875 152.011719 233.660156 154.746094 233.660156 L 201.042969 233.660156 C 203.769531 233.660156 205.984375 235.875 205.984375 238.605469 C 205.984375 241.339844 203.769531 243.554688 201.042969 243.554688 Z M 201.042969 243.554688 " fill-opacity="1" fill-rule="nonzero"/><path fill="#4e3699" d="M 318.53125 280.996094 C 317.726562 280.996094 316.90625 280.796875 316.152344 280.382812 C 313.761719 279.0625 312.890625 276.054688 314.207031 273.660156 C 316.308594 269.84375 318.171875 265.847656 319.742188 261.78125 C 321.242188 257.894531 322.503906 253.875 323.488281 249.828125 C 324.132812 247.171875 326.808594 245.546875 329.460938 246.191406 C 332.113281 246.839844 333.742188 249.515625 333.09375 252.167969 C 332.007812 256.628906 330.621094 261.066406 328.964844 265.347656 C 327.234375 269.828125 325.183594 274.230469 322.867188 278.4375 C 321.964844 280.070312 320.277344 280.996094 318.53125 280.996094 Z M 318.53125 280.996094 " fill-opacity="1" fill-rule="nonzero"/><path fill="#4e3699" d="M 333.125 236.585938 C 332.925781 236.585938 332.722656 236.574219 332.519531 236.550781 C 329.808594 236.214844 327.882812 233.75 328.214844 231.035156 C 328.777344 226.441406 329.003906 224.402344 328.9375 220.0625 C 328.898438 217.332031 331.078125 215.085938 333.808594 215.046875 C 333.832031 215.042969 333.859375 215.042969 333.882812 215.042969 C 336.578125 215.042969 338.785156 217.210938 338.824219 219.917969 C 338.898438 224.890625 338.617188 227.425781 338.023438 232.242188 C 337.71875 234.75 335.585938 236.585938 333.125 236.585938 Z M 333.125 236.585938 " fill-opacity="1" fill-rule="nonzero"/><path fill="#4e3699" d="M 226.242188 327.152344 C 226.179688 327.152344 226.117188 327.152344 226.058594 327.148438 C 220.179688 326.933594 214.277344 326.226562 208.523438 325.046875 C 205.847656 324.5 204.125 321.882812 204.671875 319.210938 C 205.222656 316.53125 207.835938 314.8125 210.507812 315.355469 C 215.730469 316.425781 221.082031 317.066406 226.417969 317.261719 C 229.144531 317.363281 231.277344 319.65625 231.179688 322.386719 C 231.078125 325.054688 228.886719 327.152344 226.242188 327.152344 Z M 226.242188 327.152344 " fill-opacity="1" fill-rule="nonzero"/><path fill="#4e3699" d="M 244.976562 327.082031 C 242.53125 327.082031 240.40625 325.265625 240.082031 322.773438 C 239.726562 320.066406 241.636719 317.582031 244.34375 317.230469 C 249.113281 316.605469 253.867188 315.621094 258.472656 314.304688 C 263.503906 312.863281 268.457031 310.996094 273.199219 308.757812 C 276.949219 306.980469 280.625 304.945312 284.121094 302.703125 C 287.480469 300.546875 290.738281 298.160156 293.808594 295.609375 C 296.96875 292.984375 299.992188 290.132812 302.800781 287.128906 C 304.664062 285.132812 307.792969 285.027344 309.785156 286.890625 C 311.78125 288.757812 311.886719 291.886719 310.019531 293.882812 C 306.933594 297.1875 303.601562 300.332031 300.125 303.222656 C 296.746094 306.03125 293.15625 308.65625 289.457031 311.03125 C 285.605469 313.5 281.554688 315.746094 277.421875 317.699219 C 272.195312 320.171875 266.734375 322.226562 261.191406 323.816406 C 256.117188 325.269531 250.878906 326.351562 245.621094 327.039062 C 245.40625 327.066406 245.1875 327.082031 244.976562 327.082031 Z M 244.976562 327.082031 " fill-opacity="1" fill-rule="nonzero"/><path fill="#80c9ff" d="M 313.804688 220.574219 C 313.804688 221.917969 313.773438 223.265625 313.707031 224.609375 C 313.640625 225.953125 313.542969 227.296875 313.410156 228.632812 C 313.277344 229.972656 313.113281 231.308594 312.917969 232.640625 C 312.71875 233.972656 312.488281 235.296875 312.226562 236.617188 C 311.964844 237.9375 311.667969 239.25 311.34375 240.554688 C 311.015625 241.863281 310.65625 243.15625 310.265625 244.445312 C 309.875 245.734375 309.453125 247.011719 309 248.277344 C 308.546875 249.546875 308.066406 250.800781 307.550781 252.042969 C 307.035156 253.289062 306.492188 254.519531 305.914062 255.734375 C 305.339844 256.953125 304.734375 258.152344 304.101562 259.339844 C 303.46875 260.527344 302.804688 261.699219 302.113281 262.851562 C 301.421875 264.007812 300.703125 265.144531 299.957031 266.261719 C 299.207031 267.382812 298.433594 268.480469 297.632812 269.5625 C 296.832031 270.644531 296.003906 271.703125 295.152344 272.746094 C 294.296875 273.785156 293.417969 274.804688 292.515625 275.800781 C 291.613281 276.796875 290.6875 277.773438 289.734375 278.722656 C 288.785156 279.675781 287.808594 280.605469 286.8125 281.507812 C 285.816406 282.410156 284.796875 283.289062 283.757812 284.144531 C 282.71875 284.996094 281.660156 285.824219 280.578125 286.628906 C 279.5 287.429688 278.398438 288.203125 277.28125 288.953125 C 276.164062 289.699219 275.027344 290.417969 273.875 291.109375 C 272.71875 291.804688 271.550781 292.464844 270.363281 293.101562 C 269.175781 293.734375 267.976562 294.339844 266.761719 294.914062 C 265.542969 295.492188 264.316406 296.035156 263.074219 296.550781 C 261.828125 297.066406 260.574219 297.550781 259.308594 298.003906 C 258.042969 298.457031 256.765625 298.878906 255.480469 299.269531 C 254.191406 299.660156 252.894531 300.019531 251.589844 300.347656 C 250.285156 300.671875 248.976562 300.96875 247.65625 301.230469 C 246.335938 301.492188 245.011719 301.722656 243.679688 301.921875 C 242.351562 302.117188 241.015625 302.28125 239.679688 302.414062 C 238.339844 302.546875 237 302.644531 235.65625 302.710938 C 234.3125 302.777344 232.96875 302.8125 231.621094 302.8125 C 230.277344 302.8125 228.933594 302.777344 227.589844 302.710938 C 226.246094 302.644531 224.90625 302.546875 223.566406 302.414062 C 222.226562 302.28125 220.894531 302.117188 219.5625 301.921875 C 218.234375 301.722656 216.910156 301.492188 215.589844 301.230469 C 214.269531 300.96875 212.957031 300.671875 211.652344 300.347656 C 210.347656 300.019531 209.054688 299.660156 207.765625 299.269531 C 206.480469 298.878906 205.203125 298.457031 203.9375 298.003906 C 202.667969 297.550781 201.414062 297.066406 200.171875 296.550781 C 198.929688 296.035156 197.699219 295.492188 196.484375 294.914062 C 195.269531 294.339844 194.066406 293.734375 192.882812 293.101562 C 191.695312 292.464844 190.523438 291.804688 189.371094 291.109375 C 188.21875 290.417969 187.082031 289.699219 185.964844 288.953125 C 184.84375 288.203125 183.746094 287.429688 182.664062 286.628906 C 181.585938 285.824219 180.527344 284.996094 179.484375 284.144531 C 178.445312 283.289062 177.429688 282.410156 176.429688 281.507812 C 175.433594 280.605469 174.460938 279.675781 173.511719 278.722656 C 172.558594 277.773438 171.632812 276.796875 170.726562 275.800781 C 169.824219 274.804688 168.945312 273.785156 168.09375 272.746094 C 167.242188 271.703125 166.414062 270.644531 165.613281 269.5625 C 164.8125 268.480469 164.035156 267.382812 163.289062 266.261719 C 162.542969 265.144531 161.824219 264.007812 161.132812 262.851562 C 160.441406 261.699219 159.777344 260.527344 159.144531 259.339844 C 158.507812 258.152344 157.90625 256.953125 157.328125 255.734375 C 156.753906 254.519531 156.210938 253.289062 155.695312 252.042969 C 155.179688 250.800781 154.695312 249.546875 154.242188 248.277344 C 153.789062 247.011719 153.367188 245.734375 152.976562 244.445312 C 152.585938 243.15625 152.230469 241.863281 151.902344 240.554688 C 151.574219 239.25 151.28125 237.9375 151.019531 236.617188 C 150.753906 235.296875 150.527344 233.972656 150.328125 232.640625 C 150.132812 231.308594 149.964844 229.972656 149.835938 228.632812 C 149.703125 227.296875 149.605469 225.953125 149.539062 224.609375 C 149.472656 223.265625 149.4375 221.917969 149.4375 220.574219 C 149.4375 219.226562 149.472656 217.882812 149.539062 216.539062 C 149.605469 215.195312 149.703125 213.851562 149.835938 212.511719 C 149.964844 211.175781 150.132812 209.839844 150.328125 208.507812 C 150.527344 207.175781 150.753906 205.851562 151.019531 204.53125 C 151.28125 203.210938 151.574219 201.898438 151.902344 200.59375 C 152.230469 199.285156 152.585938 197.988281 152.976562 196.703125 C 153.367188 195.414062 153.789062 194.136719 154.242188 192.867188 C 154.695312 191.601562 155.179688 190.347656 155.695312 189.101562 C 156.210938 187.859375 156.753906 186.628906 157.328125 185.414062 C 157.90625 184.195312 158.507812 182.996094 159.144531 181.808594 C 159.777344 180.621094 160.441406 179.449219 161.132812 178.296875 C 161.824219 177.140625 162.542969 176.003906 163.289062 174.886719 C 164.035156 173.765625 164.8125 172.667969 165.613281 171.585938 C 166.414062 170.503906 167.242188 169.445312 168.09375 168.402344 C 168.945312 167.363281 169.824219 166.34375 170.726562 165.347656 C 171.632812 164.351562 172.558594 163.375 173.511719 162.421875 C 174.460938 161.472656 175.433594 160.542969 176.429688 159.640625 C 177.429688 158.738281 178.445312 157.859375 179.484375 157.003906 C 180.527344 156.148438 181.585938 155.324219 182.664062 154.519531 C 183.746094 153.71875 184.84375 152.945312 185.964844 152.195312 C 187.082031 151.449219 188.21875 150.730469 189.371094 150.035156 C 190.523438 149.34375 191.695312 148.683594 192.882812 148.046875 C 194.066406 147.414062 195.269531 146.808594 196.484375 146.234375 C 197.699219 145.65625 198.929688 145.113281 200.171875 144.597656 C 201.414062 144.082031 202.667969 143.597656 203.9375 143.144531 C 205.203125 142.691406 206.480469 142.269531 207.765625 141.878906 C 209.054688 141.488281 210.347656 141.128906 211.652344 140.800781 C 212.957031 140.472656 214.269531 140.179688 215.589844 139.917969 C 216.910156 139.65625 218.234375 139.425781 219.5625 139.226562 C 220.894531 139.03125 222.226562 138.863281 223.566406 138.734375 C 224.90625 138.601562 226.246094 138.503906 227.589844 138.4375 C 228.933594 138.371094 230.277344 138.335938 231.621094 138.335938 C 232.96875 138.335938 234.3125 138.371094 235.65625 138.4375 C 237 138.503906 238.339844 138.601562 239.679688 138.734375 C 241.015625 138.863281 242.351562 139.03125 243.679688 139.226562 C 245.011719 139.425781 246.335938 139.65625 247.65625 139.917969 C 248.976562 140.179688 250.285156 140.472656 251.589844 140.800781 C 252.894531 141.128906 254.191406 141.488281 255.480469 141.878906 C 256.765625 142.269531 258.042969 142.691406 259.308594 143.144531 C 260.574219 143.597656 261.828125 144.082031 263.074219 144.597656 C 264.316406 145.113281 265.542969 145.65625 266.761719 146.234375 C 267.976562 146.808594 269.175781 147.414062 270.363281 148.046875 C 271.550781 148.683594 272.71875 149.34375 273.875 150.035156 C 275.027344 150.730469 276.164062 151.449219 277.28125 152.195312 C 278.398438 152.945312 279.5 153.71875 280.578125 154.519531 C 281.660156 155.324219 282.71875 156.148438 283.757812 157.003906 C 284.796875 157.859375 285.816406 158.738281 286.8125 159.640625 C 287.808594 160.542969 288.785156 161.472656 289.734375 162.421875 C 290.6875 163.375 291.613281 164.351562 292.515625 165.347656 C 293.417969 166.34375 294.296875 167.363281 295.152344 168.402344 C 296.003906 169.445312 296.832031 170.503906 297.632812 171.585938 C 298.433594 172.667969 299.207031 173.765625 299.957031 174.886719 C 300.703125 176.003906 301.421875 177.140625 302.113281 178.296875 C 302.804688 179.449219 303.46875 180.621094 304.101562 181.808594 C 304.734375 182.996094 305.339844 184.195312 305.914062 185.414062 C 306.492188 186.628906 307.035156 187.859375 307.550781 189.101562 C 308.066406 190.347656 308.546875 191.601562 309 192.867188 C 309.453125 194.136719 309.875 195.414062 310.265625 196.703125 C 310.65625 197.988281 311.015625 199.285156 311.34375 200.59375 C 311.667969 201.898438 311.964844 203.210938 312.226562 204.53125 C 312.488281 205.851562 312.71875 207.175781 312.917969 208.507812 C 313.113281 209.839844 313.277344 211.175781 313.410156 212.511719 C 313.542969 213.851562 313.640625 215.195312 313.707031 216.539062 C 313.773438 217.882812 313.804688 219.226562 313.804688 220.574219 Z M 313.804688 220.574219 " fill-opacity="1" fill-rule="nonzero"/><path fill="#4e3699" d="M 231.625 307.757812 C 183.582031 307.757812 144.496094 268.648438 144.496094 220.574219 C 144.496094 172.5 183.582031 133.390625 231.625 133.390625 C 279.664062 133.390625 318.75 172.5 318.75 220.574219 C 318.75 268.648438 279.664062 307.757812 231.625 307.757812 Z M 231.625 143.285156 C 189.03125 143.285156 154.382812 177.957031 154.382812 220.574219 C 154.382812 263.191406 189.03125 297.863281 231.625 297.863281 C 274.214844 297.863281 308.863281 263.191406 308.863281 220.574219 C 308.863281 177.957031 274.214844 143.285156 231.625 143.285156 Z M 231.625 143.285156 " fill-opacity="1" fill-rule="nonzero"/><path fill="#ff6a48" d="M 285.875 220.574219 C 285.875 222.351562 285.785156 224.125 285.613281 225.894531 C 285.4375 227.664062 285.179688 229.421875 284.832031 231.164062 C 284.484375 232.910156 284.054688 234.632812 283.539062 236.332031 C 283.023438 238.035156 282.425781 239.707031 281.746094 241.347656 C 281.0625 242.992188 280.304688 244.597656 279.46875 246.164062 C 278.628906 247.734375 277.71875 249.253906 276.730469 250.734375 C 275.742188 252.210938 274.6875 253.636719 273.558594 255.011719 C 272.433594 256.386719 271.242188 257.703125 269.984375 258.960938 C 268.726562 260.21875 267.414062 261.410156 266.039062 262.539062 C 264.664062 263.664062 263.238281 264.722656 261.761719 265.710938 C 260.285156 266.699219 258.761719 267.613281 257.195312 268.449219 C 255.628906 269.289062 254.023438 270.046875 252.382812 270.726562 C 250.742188 271.410156 249.070312 272.007812 247.371094 272.523438 C 245.671875 273.039062 243.949219 273.46875 242.207031 273.816406 C 240.464844 274.164062 238.707031 274.425781 236.941406 274.597656 C 235.171875 274.773438 233.398438 274.859375 231.621094 274.859375 C 229.84375 274.859375 228.074219 274.773438 226.304688 274.597656 C 224.535156 274.425781 222.78125 274.164062 221.039062 273.816406 C 219.296875 273.46875 217.574219 273.039062 215.875 272.523438 C 214.171875 272.007812 212.503906 271.410156 210.859375 270.726562 C 209.21875 270.046875 207.617188 269.289062 206.046875 268.449219 C 204.480469 267.613281 202.960938 266.699219 201.480469 265.710938 C 200.003906 264.722656 198.578125 263.664062 197.207031 262.539062 C 195.832031 261.410156 194.515625 260.21875 193.261719 258.960938 C 192.003906 257.703125 190.8125 256.386719 189.683594 255.011719 C 188.558594 253.636719 187.5 252.210938 186.515625 250.734375 C 185.527344 249.253906 184.613281 247.734375 183.777344 246.164062 C 182.9375 244.597656 182.179688 242.992188 181.5 241.347656 C 180.820312 239.707031 180.222656 238.035156 179.707031 236.332031 C 179.191406 234.632812 178.761719 232.910156 178.414062 231.164062 C 178.066406 229.421875 177.804688 227.664062 177.632812 225.894531 C 177.457031 224.125 177.371094 222.351562 177.371094 220.574219 C 177.371094 218.796875 177.457031 217.023438 177.632812 215.253906 C 177.804688 213.484375 178.066406 211.726562 178.414062 209.984375 C 178.761719 208.238281 179.191406 206.515625 179.707031 204.816406 C 180.222656 203.113281 180.820312 201.441406 181.5 199.800781 C 182.179688 198.15625 182.9375 196.550781 183.777344 194.984375 C 184.613281 193.414062 185.527344 191.890625 186.515625 190.414062 C 187.5 188.9375 188.558594 187.507812 189.683594 186.136719 C 190.8125 184.761719 192.003906 183.445312 193.261719 182.1875 C 194.515625 180.929688 195.832031 179.738281 197.207031 178.609375 C 198.578125 177.480469 200.003906 176.425781 201.480469 175.4375 C 202.960938 174.449219 204.480469 173.535156 206.046875 172.699219 C 207.617188 171.859375 209.21875 171.101562 210.859375 170.417969 C 212.503906 169.738281 214.171875 169.140625 215.875 168.625 C 217.574219 168.109375 219.296875 167.675781 221.039062 167.332031 C 222.78125 166.984375 224.535156 166.722656 226.304688 166.546875 C 228.074219 166.375 229.84375 166.289062 231.621094 166.289062 C 233.398438 166.289062 235.171875 166.375 236.941406 166.546875 C 238.707031 166.722656 240.464844 166.984375 242.207031 167.332031 C 243.949219 167.675781 245.671875 168.109375 247.371094 168.625 C 249.070312 169.140625 250.742188 169.738281 252.382812 170.417969 C 254.023438 171.101562 255.628906 171.859375 257.195312 172.699219 C 258.761719 173.535156 260.285156 174.449219 261.761719 175.4375 C 263.238281 176.425781 264.664062 177.480469 266.039062 178.609375 C 267.414062 179.738281 268.726562 180.929688 269.984375 182.1875 C 271.242188 183.445312 272.433594 184.761719 273.558594 186.136719 C 274.6875 187.507812 275.742188 188.9375 276.730469 190.414062 C 277.71875 191.890625 278.628906 193.414062 279.46875 194.984375 C 280.304688 196.550781 281.0625 198.15625 281.746094 199.800781 C 282.425781 201.441406 283.023438 203.113281 283.539062 204.816406 C 284.054688 206.515625 284.484375 208.238281 284.832031 209.984375 C 285.179688 211.726562 285.4375 213.484375 285.613281 215.253906 C 285.785156 217.023438 285.875 218.796875 285.875 220.574219 Z M 285.875 220.574219 " fill-opacity="1" fill-rule="nonzero"/><path fill="#4e3699" d="M 231.625 279.808594 C 198.984375 279.808594 172.425781 253.234375 172.425781 220.574219 C 172.425781 187.914062 198.984375 161.339844 231.625 161.339844 C 264.261719 161.339844 290.816406 187.914062 290.816406 220.574219 C 290.816406 253.234375 264.261719 279.808594 231.625 279.808594 Z M 231.625 171.234375 C 204.433594 171.234375 182.316406 193.367188 182.316406 220.574219 C 182.316406 247.777344 204.433594 269.914062 231.625 269.914062 C 258.8125 269.914062 280.929688 247.777344 280.929688 220.574219 C 280.929688 193.367188 258.8125 171.234375 231.625 171.234375 Z M 231.625 171.234375 " fill-opacity="1" fill-rule="nonzero"/><path fill="#ffb829" d="M 251.941406 220.574219 C 251.941406 221.238281 251.90625 221.902344 251.839844 222.566406 C 251.777344 223.230469 251.679688 223.886719 251.550781 224.539062 C 251.417969 225.191406 251.257812 225.839844 251.066406 226.476562 C 250.871094 227.113281 250.648438 227.738281 250.394531 228.355469 C 250.136719 228.96875 249.855469 229.570312 249.539062 230.15625 C 249.226562 230.746094 248.886719 231.316406 248.515625 231.867188 C 248.144531 232.421875 247.75 232.957031 247.328125 233.472656 C 246.90625 233.984375 246.460938 234.476562 245.988281 234.949219 C 245.519531 235.421875 245.027344 235.867188 244.511719 236.289062 C 243.996094 236.710938 243.464844 237.109375 242.910156 237.476562 C 242.355469 237.847656 241.785156 238.1875 241.199219 238.503906 C 240.613281 238.816406 240.011719 239.101562 239.398438 239.355469 C 238.78125 239.609375 238.15625 239.835938 237.519531 240.027344 C 236.882812 240.222656 236.238281 240.382812 235.585938 240.511719 C 234.933594 240.644531 234.277344 240.742188 233.613281 240.804688 C 232.953125 240.871094 232.289062 240.902344 231.625 240.902344 C 230.957031 240.902344 230.292969 240.871094 229.632812 240.804688 C 228.96875 240.742188 228.3125 240.644531 227.660156 240.511719 C 227.007812 240.382812 226.363281 240.222656 225.726562 240.027344 C 225.089844 239.835938 224.464844 239.609375 223.847656 239.355469 C 223.234375 239.101562 222.632812 238.816406 222.046875 238.503906 C 221.460938 238.1875 220.890625 237.847656 220.335938 237.476562 C 219.78125 237.109375 219.25 236.710938 218.734375 236.289062 C 218.21875 235.867188 217.726562 235.421875 217.257812 234.949219 C 216.785156 234.476562 216.339844 233.984375 215.917969 233.472656 C 215.496094 232.957031 215.101562 232.421875 214.730469 231.867188 C 214.359375 231.316406 214.019531 230.746094 213.707031 230.15625 C 213.390625 229.570312 213.109375 228.96875 212.851562 228.355469 C 212.597656 227.738281 212.375 227.113281 212.179688 226.476562 C 211.988281 225.839844 211.828125 225.191406 211.695312 224.539062 C 211.566406 223.886719 211.46875 223.230469 211.40625 222.566406 C 211.339844 221.902344 211.304688 221.238281 211.304688 220.574219 C 211.304688 219.90625 211.339844 219.242188 211.40625 218.582031 C 211.46875 217.917969 211.566406 217.261719 211.695312 216.609375 C 211.828125 215.953125 211.988281 215.308594 212.179688 214.671875 C 212.375 214.035156 212.597656 213.410156 212.851562 212.792969 C 213.109375 212.179688 213.390625 211.578125 213.707031 210.992188 C 214.019531 210.402344 214.359375 209.832031 214.730469 209.28125 C 215.101562 208.726562 215.496094 208.191406 215.917969 207.675781 C 216.339844 207.164062 216.785156 206.667969 217.257812 206.199219 C 217.726562 205.726562 218.21875 205.28125 218.734375 204.859375 C 219.25 204.4375 219.78125 204.039062 220.335938 203.671875 C 220.890625 203.300781 221.460938 202.957031 222.046875 202.644531 C 222.632812 202.332031 223.234375 202.046875 223.847656 201.792969 C 224.464844 201.535156 225.089844 201.3125 225.726562 201.121094 C 226.363281 200.925781 227.007812 200.765625 227.660156 200.636719 C 228.3125 200.503906 228.96875 200.40625 229.632812 200.34375 C 230.292969 200.277344 230.957031 200.246094 231.625 200.246094 C 232.289062 200.246094 232.953125 200.277344 233.613281 200.34375 C 234.277344 200.40625 234.933594 200.503906 235.585938 200.636719 C 236.238281 200.765625 236.882812 200.925781 237.519531 201.121094 C 238.15625 201.3125 238.78125 201.535156 239.398438 201.792969 C 240.011719 202.046875 240.613281 202.332031 241.199219 202.644531 C 241.785156 202.957031 242.355469 203.300781 242.910156 203.671875 C 243.464844 204.039062 243.996094 204.4375 244.511719 204.859375 C 245.027344 205.28125 245.519531 205.726562 245.988281 206.199219 C 246.460938 206.667969 246.90625 207.164062 247.328125 207.675781 C 247.75 208.191406 248.144531 208.726562 248.515625 209.28125 C 248.886719 209.832031 249.226562 210.402344 249.539062 210.992188 C 249.855469 211.578125 250.136719 212.179688 250.394531 212.792969 C 250.648438 213.410156 250.871094 214.035156 251.066406 214.671875 C 251.257812 215.308594 251.417969 215.953125 251.550781 216.609375 C 251.679688 217.261719 251.777344 217.917969 251.839844 218.582031 C 251.90625 219.242188 251.941406 219.90625 251.941406 220.574219 Z M 251.941406 220.574219 " fill-opacity="1" fill-rule="nonzero"/><path fill="#4e3699" d="M 231.625 245.851562 C 217.695312 245.851562 206.363281 234.511719 206.363281 220.574219 C 206.363281 206.632812 217.695312 195.296875 231.625 195.296875 C 245.550781 195.296875 256.882812 206.632812 256.882812 220.574219 C 256.882812 234.511719 245.550781 245.851562 231.625 245.851562 Z M 231.625 205.191406 C 223.148438 205.191406 216.25 212.089844 216.25 220.574219 C 216.25 229.054688 223.148438 235.957031 231.625 235.957031 C 240.101562 235.957031 246.996094 229.054688 246.996094 220.574219 C 246.996094 212.089844 240.101562 205.191406 231.625 205.191406 Z M 231.625 205.191406 " fill-opacity="1" fill-rule="nonzero"/><path fill="#ff6a48" d="M 332.757812 143.875 L 312.351562 139.792969 L 308.269531 119.371094 L 335.203125 92.421875 L 339.285156 112.839844 L 359.691406 116.925781 Z M 332.757812 143.875 " fill-opacity="1" fill-rule="nonzero"/><path fill="#4e3699" d="M 364.421875 115.492188 C 363.894531 113.746094 362.449219 112.433594 360.660156 112.074219 L 343.488281 108.636719 L 340.050781 91.449219 C 339.691406 89.660156 338.378906 88.214844 336.636719 87.6875 C 334.890625 87.160156 332.996094 87.632812 331.707031 88.921875 L 304.773438 115.875 C 303.605469 117.042969 303.097656 118.71875 303.421875 120.34375 L 306.921875 137.847656 L 228.125 217.074219 C 226.195312 219.007812 226.195312 222.136719 228.125 224.070312 C 229.09375 225.035156 230.359375 225.519531 231.621094 225.519531 C 232.886719 225.519531 234.152344 225.035156 235.117188 224.070312 L 313.65625 145.097656 L 331.789062 148.726562 C 332.113281 148.792969 332.4375 148.824219 332.757812 148.824219 C 334.058594 148.824219 335.316406 148.3125 336.253906 147.375 L 363.1875 120.421875 C 364.476562 119.132812 364.953125 117.238281 364.421875 115.492188 Z M 331.132812 138.507812 L 316.554688 135.585938 L 313.636719 120.996094 L 332.167969 102.453125 L 334.4375 113.808594 C 334.828125 115.769531 336.359375 117.300781 338.316406 117.691406 L 349.664062 119.960938 Z M 331.132812 138.507812 " fill-opacity="1" fill-rule="nonzero"/></svg>