<svg xmlns="http://www.w3.org/2000/svg" xmlns:xlink="http://www.w3.org/1999/xlink" width="500" zoomAndPan="magnify" viewBox="0 0 375 374.999991" height="500" preserveAspectRatio="xMidYMid meet" version="1.0"><defs><clipPath id="249ed39868"><path d="M 65.125 15.136719 L 309.625 15.136719 L 309.625 360.136719 L 65.125 360.136719 Z M 65.125 15.136719 " clip-rule="nonzero"/></clipPath><clipPath id="558fa12e98"><path d="M 252 15.136719 L 309.625 15.136719 L 309.625 73 L 252 73 Z M 252 15.136719 " clip-rule="nonzero"/></clipPath><clipPath id="ad019916df"><path d="M 65.125 254 L 309.625 254 L 309.625 263 L 65.125 263 Z M 65.125 254 " clip-rule="nonzero"/></clipPath><clipPath id="b4fbe6b268"><path d="M 65.125 274 L 309.625 274 L 309.625 283 L 65.125 283 Z M 65.125 274 " clip-rule="nonzero"/></clipPath><clipPath id="ca6241ea3b"><path d="M 212 125 L 343 125 L 343 169.5 L 212 169.5 Z M 212 125 " clip-rule="nonzero"/></clipPath><clipPath id="c8e88faac1"><path d="M 148.878906 36 L 245 36 L 245 70 L 148.878906 70 Z M 148.878906 36 " clip-rule="nonzero"/></clipPath><clipPath id="75a09d6dfe"><path d="M 270 54 L 359.628906 54 L 359.628906 85 L 270 85 Z M 270 54 " clip-rule="nonzero"/></clipPath></defs><path fill="#cb6ce6" d="M 140.894531 343.589844 C 135.855469 343.589844 131.105469 341.617188 127.519531 338.027344 C 123.9375 334.4375 121.960938 329.683594 121.964844 324.636719 L 121.964844 295.292969 C 121.964844 293.132812 123.714844 291.378906 125.871094 291.378906 C 128.03125 291.378906 129.78125 293.132812 129.78125 295.292969 L 129.78125 324.636719 C 129.78125 327.589844 130.941406 330.378906 133.046875 332.488281 C 135.15625 334.597656 137.941406 335.757812 140.894531 335.757812 C 147.023438 335.757812 152.007812 330.769531 152.007812 324.636719 L 152.007812 295.292969 C 152.007812 293.132812 153.761719 291.378906 155.917969 291.378906 C 158.078125 291.378906 159.828125 293.132812 159.828125 295.292969 L 159.828125 324.636719 C 159.828125 335.085938 151.335938 343.589844 140.894531 343.589844 Z M 140.894531 343.589844 " fill-opacity="1" fill-rule="nonzero"/><path fill="#cb6ce6" d="M 248.578125 343.589844 L 218.53125 343.589844 C 216.371094 343.589844 214.621094 341.839844 214.621094 339.675781 L 214.621094 295.292969 C 214.621094 293.132812 216.371094 291.378906 218.53125 291.378906 C 220.6875 291.378906 222.4375 293.132812 222.4375 295.292969 L 222.4375 335.757812 L 248.578125 335.757812 C 250.738281 335.757812 252.488281 337.511719 252.488281 339.675781 C 252.488281 341.839844 250.738281 343.589844 248.578125 343.589844 Z M 248.578125 343.589844 " fill-opacity="1" fill-rule="nonzero"/><path fill="#cb6ce6" d="M 187.1875 321.402344 L 172.105469 321.402344 C 169.945312 321.402344 168.195312 319.648438 168.195312 317.484375 L 168.195312 295.292969 C 168.195312 293.132812 169.945312 291.378906 172.105469 291.378906 L 187.1875 291.378906 C 199.578125 291.378906 206.058594 298.929688 206.058594 306.390625 C 206.058594 310.421875 204.183594 314.296875 200.910156 317.027344 C 197.480469 319.890625 192.734375 321.402344 187.1875 321.402344 Z M 176.011719 313.570312 L 187.1875 313.570312 C 191.859375 313.570312 194.507812 312.175781 195.910156 311.007812 C 197.414062 309.753906 198.242188 308.113281 198.242188 306.390625 C 198.242188 302.933594 194.78125 299.210938 187.1875 299.210938 L 176.011719 299.210938 Z M 176.011719 313.570312 " fill-opacity="1" fill-rule="nonzero"/><path fill="#cb6ce6" d="M 172.105469 343.589844 C 169.945312 343.589844 168.195312 341.839844 168.195312 339.675781 L 168.195312 317.484375 C 168.195312 315.320312 169.945312 313.570312 172.105469 313.570312 C 174.261719 313.570312 176.011719 315.320312 176.011719 317.484375 L 176.011719 339.675781 C 176.011719 341.839844 174.265625 343.589844 172.105469 343.589844 Z M 172.105469 343.589844 " fill-opacity="1" fill-rule="nonzero"/><path fill="#cb6ce6" d="M 202.15625 343.59375 C 200.898438 343.59375 199.667969 342.988281 198.914062 341.867188 L 183.949219 319.675781 C 182.738281 317.886719 183.210938 315.449219 185 314.238281 C 186.785156 313.03125 189.214844 313.5 190.425781 315.292969 L 205.390625 337.484375 C 206.597656 339.277344 206.128906 341.710938 204.339844 342.921875 C 203.667969 343.375 202.90625 343.59375 202.15625 343.59375 Z M 202.15625 343.59375 " fill-opacity="1" fill-rule="nonzero"/><g clip-path="url(#249ed39868)"><path fill="#cb6ce6" d="M 281.5625 360.121094 L 92.890625 360.121094 C 77.597656 360.121094 65.15625 347.660156 65.15625 332.339844 L 65.15625 43.234375 C 65.15625 27.914062 77.597656 15.453125 92.890625 15.453125 L 256.160156 15.453125 C 258.320312 15.453125 260.070312 17.207031 260.070312 19.367188 C 260.070312 21.53125 258.320312 23.285156 256.160156 23.285156 L 92.890625 23.285156 C 81.910156 23.285156 72.972656 32.234375 72.972656 43.234375 L 72.972656 332.339844 C 72.972656 343.339844 81.910156 352.292969 92.890625 352.292969 L 281.5625 352.292969 C 292.542969 352.292969 301.476562 343.339844 301.476562 332.339844 L 301.476562 68.679688 C 301.476562 66.515625 303.226562 64.761719 305.382812 64.761719 C 307.542969 64.761719 309.292969 66.515625 309.292969 68.679688 L 309.292969 332.339844 C 309.292969 347.660156 296.851562 360.121094 281.5625 360.121094 Z M 281.5625 360.121094 " fill-opacity="1" fill-rule="nonzero"/></g><g clip-path="url(#558fa12e98)"><path fill="#cb6ce6" d="M 305.382812 72.59375 L 270.609375 72.59375 C 260.488281 72.59375 252.253906 64.347656 252.253906 54.207031 L 252.253906 19.367188 C 252.253906 17.785156 253.207031 16.355469 254.667969 15.75 C 256.125 15.144531 257.808594 15.476562 258.925781 16.597656 L 308.148438 65.910156 C 309.265625 67.03125 309.601562 68.714844 308.996094 70.179688 C 308.390625 71.640625 306.964844 72.59375 305.382812 72.59375 Z M 260.070312 28.820312 L 260.070312 54.207031 C 260.070312 60.027344 264.796875 64.761719 270.609375 64.761719 L 295.945312 64.761719 Z M 260.070312 28.820312 " fill-opacity="1" fill-rule="nonzero"/></g><g clip-path="url(#ad019916df)"><path fill="#cb6ce6" d="M 305.382812 262.757812 L 69.066406 262.757812 C 66.90625 262.757812 65.15625 261.003906 65.15625 258.839844 C 65.15625 256.675781 66.90625 254.925781 69.066406 254.925781 L 305.382812 254.925781 C 307.542969 254.925781 309.292969 256.675781 309.292969 258.839844 C 309.292969 261.003906 307.542969 262.757812 305.382812 262.757812 Z M 305.382812 262.757812 " fill-opacity="1" fill-rule="nonzero"/></g><g clip-path="url(#b4fbe6b268)"><path fill="#cb6ce6" d="M 305.382812 282.679688 L 69.066406 282.679688 C 66.90625 282.679688 65.15625 280.925781 65.15625 278.761719 C 65.15625 276.601562 66.90625 274.847656 69.066406 274.847656 L 305.382812 274.847656 C 307.542969 274.847656 309.292969 276.601562 309.292969 278.761719 C 309.292969 280.925781 307.542969 282.679688 305.382812 282.679688 Z M 305.382812 282.679688 " fill-opacity="1" fill-rule="nonzero"/></g><path fill="#cb6ce6" d="M 278.785156 101.886719 L 95.664062 101.886719 C 93.503906 101.886719 91.753906 100.132812 91.753906 97.96875 C 91.753906 95.808594 93.503906 94.054688 95.664062 94.054688 L 278.785156 94.054688 C 280.945312 94.054688 282.695312 95.808594 282.695312 97.96875 C 282.695312 100.132812 280.945312 101.886719 278.785156 101.886719 Z M 278.785156 101.886719 " fill-opacity="1" fill-rule="nonzero"/><path fill="#cb6ce6" d="M 278.785156 128.203125 L 95.664062 128.203125 C 93.503906 128.203125 91.753906 126.449219 91.753906 124.285156 C 91.753906 122.125 93.503906 120.371094 95.664062 120.371094 L 278.785156 120.371094 C 280.945312 120.371094 282.695312 122.125 282.695312 124.285156 C 282.695312 126.449219 280.945312 128.203125 278.785156 128.203125 Z M 278.785156 128.203125 " fill-opacity="1" fill-rule="nonzero"/><path fill="#cb6ce6" d="M 278.785156 154.519531 L 95.664062 154.519531 C 93.503906 154.519531 91.753906 152.765625 91.753906 150.601562 C 91.753906 148.4375 93.503906 146.6875 95.664062 146.6875 L 278.785156 146.6875 C 280.945312 146.6875 282.695312 148.4375 282.695312 150.601562 C 282.695312 152.765625 280.945312 154.519531 278.785156 154.519531 Z M 278.785156 154.519531 " fill-opacity="1" fill-rule="nonzero"/><path fill="#cb6ce6" d="M 278.785156 180.832031 L 95.664062 180.832031 C 93.503906 180.832031 91.753906 179.078125 91.753906 176.917969 C 91.753906 174.753906 93.503906 173 95.664062 173 L 278.785156 173 C 280.945312 173 282.695312 174.753906 282.695312 176.917969 C 282.695312 179.078125 280.945312 180.832031 278.785156 180.832031 Z M 278.785156 180.832031 " fill-opacity="1" fill-rule="nonzero"/><path fill="#cb6ce6" d="M 278.785156 207.148438 L 95.664062 207.148438 C 93.503906 207.148438 91.753906 205.398438 91.753906 203.234375 C 91.753906 201.070312 93.503906 199.316406 95.664062 199.316406 L 278.785156 199.316406 C 280.945312 199.316406 282.695312 201.070312 282.695312 203.234375 C 282.695312 205.398438 280.945312 207.148438 278.785156 207.148438 Z M 278.785156 207.148438 " fill-opacity="1" fill-rule="nonzero"/><path fill="#cb6ce6" d="M 278.785156 233.464844 L 95.664062 233.464844 C 93.503906 233.464844 91.753906 231.710938 91.753906 229.550781 C 91.753906 227.386719 93.503906 225.632812 95.664062 225.632812 L 278.785156 225.632812 C 280.945312 225.632812 282.695312 227.386719 282.695312 229.550781 C 282.695312 231.710938 280.945312 233.464844 278.785156 233.464844 Z M 278.785156 233.464844 " fill-opacity="1" fill-rule="nonzero"/><path fill="#cb6ce6" d="M 216.292969 75.164062 L 175.015625 75.164062 C 172.855469 75.164062 171.105469 73.410156 171.105469 71.246094 L 171.105469 41.171875 C 171.105469 39.007812 172.855469 37.257812 175.015625 37.257812 L 216.292969 37.257812 C 218.453125 37.257812 220.199219 39.007812 220.199219 41.171875 L 220.199219 71.246094 C 220.199219 73.410156 218.453125 75.164062 216.292969 75.164062 Z M 178.921875 67.332031 L 212.382812 67.332031 L 212.382812 45.089844 L 178.921875 45.089844 Z M 178.921875 67.332031 " fill-opacity="1" fill-rule="nonzero"/><path fill="#cb6ce6" d="M 150.214844 75.164062 L 108.933594 75.164062 C 106.777344 75.164062 105.027344 73.410156 105.027344 71.246094 L 105.027344 41.171875 C 105.027344 39.007812 106.777344 37.257812 108.933594 37.257812 L 150.214844 37.257812 C 152.371094 37.257812 154.121094 39.007812 154.121094 41.171875 L 154.121094 71.246094 C 154.121094 73.410156 152.371094 75.164062 150.214844 75.164062 Z M 112.84375 67.332031 L 146.304688 67.332031 L 146.304688 45.089844 L 112.84375 45.089844 Z M 112.84375 67.332031 " fill-opacity="1" fill-rule="nonzero"/><path fill="#7d177c" d="M 320.566406 167.503906 L 234.40625 167.503906 C 223.496094 167.503906 214.570312 158.585938 214.570312 147.683594 L 214.570312 147.679688 C 214.570312 136.78125 223.496094 127.863281 234.40625 127.863281 L 320.566406 127.863281 C 331.476562 127.863281 340.402344 136.78125 340.402344 147.679688 L 340.402344 147.683594 C 340.402344 158.585938 331.476562 167.503906 320.566406 167.503906 " fill-opacity="1" fill-rule="nonzero"/><path fill="#7d177c" d="M 344.078125 82.949219 L 285.566406 82.949219 C 278.15625 82.949219 272.097656 76.890625 272.097656 69.488281 L 272.097656 69.484375 C 272.097656 62.085938 278.15625 56.027344 285.566406 56.027344 L 344.078125 56.027344 C 351.484375 56.027344 357.550781 62.085938 357.550781 69.484375 L 357.550781 69.488281 C 357.550781 76.890625 351.484375 82.949219 344.078125 82.949219 " fill-opacity="1" fill-rule="nonzero"/><g clip-path="url(#ca6241ea3b)"><path fill="#1a323d" d="M 234.40625 129.859375 C 224.570312 129.859375 216.570312 137.855469 216.570312 147.679688 C 216.570312 157.507812 224.570312 165.503906 234.40625 165.503906 L 320.566406 165.503906 C 330.402344 165.503906 338.398438 157.507812 338.398438 147.683594 C 338.398438 137.855469 330.402344 129.859375 320.566406 129.859375 Z M 320.566406 169.503906 L 234.40625 169.503906 C 222.363281 169.503906 212.566406 159.714844 212.566406 147.683594 C 212.566406 135.652344 222.363281 125.863281 234.40625 125.863281 L 320.566406 125.863281 C 332.609375 125.863281 342.402344 135.652344 342.402344 147.679688 C 342.402344 159.714844 332.609375 169.503906 320.566406 169.503906 " fill-opacity="1" fill-rule="nonzero"/></g><path fill="#f5aa1b" d="M 228.402344 67.527344 L 165.453125 67.527344 C 157.480469 67.527344 150.960938 61.011719 150.960938 53.046875 L 150.960938 53.042969 C 150.960938 45.078125 157.480469 38.566406 165.453125 38.566406 L 228.402344 38.566406 C 236.375 38.566406 242.898438 45.078125 242.898438 53.042969 L 242.898438 53.046875 C 242.898438 61.011719 236.375 67.527344 228.402344 67.527344 " fill-opacity="1" fill-rule="nonzero"/><path fill="#f5aa1b" d="M 313.890625 30.960938 L 250.941406 30.960938 C 242.96875 30.960938 236.445312 24.445312 236.445312 16.480469 C 236.445312 8.515625 242.96875 2 250.941406 2 L 313.890625 2 C 321.863281 2 328.382812 8.515625 328.382812 16.480469 C 328.382812 24.445312 321.863281 30.960938 313.890625 30.960938 " fill-opacity="1" fill-rule="nonzero"/><path fill="#f5aa1b" d="M 259.683594 116.757812 L 188.742188 116.757812 C 179.761719 116.757812 172.410156 109.410156 172.410156 100.4375 L 172.410156 100.433594 C 172.410156 91.460938 179.761719 84.117188 188.742188 84.117188 L 259.683594 84.117188 C 268.664062 84.117188 276.015625 91.460938 276.015625 100.433594 L 276.015625 100.4375 C 276.015625 109.410156 268.664062 116.757812 259.683594 116.757812 " fill-opacity="1" fill-rule="nonzero"/><path fill="#1a323d" d="M 238.773438 152.496094 C 239.058594 152.496094 239.308594 152.597656 239.515625 152.804688 C 239.726562 153.015625 239.832031 153.265625 239.832031 153.550781 L 239.832031 157.386719 C 239.832031 157.675781 239.726562 157.921875 239.515625 158.132812 C 239.308594 158.339844 239.058594 158.445312 238.773438 158.445312 L 235.128906 158.445312 C 234.839844 158.445312 234.59375 158.339844 234.382812 158.132812 C 234.175781 157.921875 234.070312 157.675781 234.070312 157.386719 L 234.070312 153.550781 C 234.070312 153.265625 234.175781 153.015625 234.382812 152.804688 C 234.59375 152.597656 234.839844 152.496094 235.128906 152.496094 L 238.773438 152.496094 " fill-opacity="1" fill-rule="nonzero"/><path fill="#1a323d" d="M 248.882812 146.894531 C 248.828125 147.285156 248.804688 147.746094 248.804688 148.265625 C 248.804688 148.789062 248.828125 149.242188 248.882812 149.636719 C 248.960938 150.445312 249.140625 151.136719 249.429688 151.710938 C 249.71875 152.285156 250.074219 152.75 250.507812 153.101562 C 250.9375 153.453125 251.414062 153.714844 251.9375 153.886719 C 252.460938 154.054688 252.996094 154.140625 253.542969 154.140625 C 254.195312 154.140625 254.746094 154.085938 255.191406 153.980469 C 255.632812 153.878906 256.011719 153.726562 256.328125 153.53125 C 256.640625 153.335938 256.90625 153.117188 257.128906 152.867188 C 257.351562 152.617188 257.566406 152.335938 257.777344 152.023438 C 257.933594 151.789062 258.113281 151.554688 258.324219 151.320312 C 258.535156 151.085938 258.78125 150.96875 259.070312 150.96875 L 262.046875 150.96875 C 262.335938 150.96875 262.589844 151.070312 262.808594 151.28125 C 263.03125 151.488281 263.128906 151.738281 263.105469 152.023438 C 263.078125 152.570312 262.882812 153.238281 262.515625 154.019531 C 262.148438 154.804688 261.582031 155.554688 260.8125 156.273438 C 260.042969 156.988281 259.054688 157.597656 257.851562 158.089844 C 256.652344 158.585938 255.214844 158.835938 253.542969 158.835938 C 252.105469 158.835938 250.8125 158.59375 249.664062 158.109375 C 248.515625 157.628906 247.515625 156.976562 246.667969 156.152344 C 245.820312 155.332031 245.152344 154.378906 244.667969 153.296875 C 244.183594 152.214844 243.890625 151.070312 243.789062 149.871094 C 243.734375 149.402344 243.710938 148.878906 243.710938 148.304688 C 243.710938 147.730469 243.734375 147.195312 243.789062 146.703125 C 243.867188 145.5 244.152344 144.351562 244.648438 143.253906 C 245.144531 142.160156 245.8125 141.199219 246.648438 140.378906 C 247.484375 139.558594 248.484375 138.902344 249.644531 138.421875 C 250.808594 137.9375 252.105469 137.695312 253.542969 137.695312 C 255.214844 137.695312 256.652344 137.941406 257.851562 138.441406 C 259.054688 138.9375 260.042969 139.542969 260.8125 140.261719 C 261.582031 140.980469 262.148438 141.730469 262.515625 142.511719 C 262.882812 143.292969 263.078125 143.957031 263.105469 144.507812 C 263.128906 144.796875 263.03125 145.042969 262.808594 145.25 C 262.589844 145.460938 262.335938 145.566406 262.046875 145.566406 L 259.070312 145.566406 C 258.78125 145.566406 258.535156 145.445312 258.324219 145.210938 C 258.113281 144.976562 257.933594 144.742188 257.777344 144.507812 C 257.566406 144.195312 257.351562 143.914062 257.128906 143.664062 C 256.90625 143.417969 256.640625 143.195312 256.328125 143 C 256.011719 142.804688 255.632812 142.65625 255.191406 142.550781 C 254.746094 142.445312 254.195312 142.394531 253.542969 142.394531 C 252.996094 142.394531 252.460938 142.480469 251.9375 142.648438 C 251.414062 142.820312 250.9375 143.078125 250.507812 143.429688 C 250.074219 143.785156 249.71875 144.25 249.429688 144.820312 C 249.140625 145.398438 248.960938 146.085938 248.882812 146.894531 " fill-opacity="1" fill-rule="nonzero"/><path fill="#1a323d" d="M 281.089844 146.503906 C 281.011719 145.695312 280.820312 145.023438 280.523438 144.488281 C 280.222656 143.953125 279.847656 143.527344 279.40625 143.214844 C 278.960938 142.902344 278.476562 142.6875 277.957031 142.570312 C 277.433594 142.453125 276.898438 142.394531 276.347656 142.394531 C 275.800781 142.394531 275.265625 142.453125 274.742188 142.570312 C 274.21875 142.6875 273.738281 142.902344 273.292969 143.214844 C 272.847656 143.527344 272.476562 143.953125 272.175781 144.488281 C 271.875 145.023438 271.6875 145.695312 271.605469 146.503906 C 271.582031 146.714844 271.5625 146.976562 271.550781 147.285156 C 271.535156 147.601562 271.53125 147.925781 271.53125 148.265625 C 271.53125 148.605469 271.535156 148.9375 271.550781 149.265625 C 271.5625 149.589844 271.582031 149.84375 271.605469 150.027344 C 271.6875 150.835938 271.875 151.507812 272.175781 152.042969 C 272.476562 152.578125 272.847656 153.003906 273.292969 153.316406 C 273.738281 153.628906 274.21875 153.847656 274.742188 153.960938 C 275.265625 154.082031 275.800781 154.140625 276.347656 154.140625 C 276.898438 154.140625 277.433594 154.082031 277.957031 153.960938 C 278.476562 153.847656 278.960938 153.628906 279.40625 153.316406 C 279.847656 153.003906 280.222656 152.578125 280.523438 152.042969 C 280.820312 151.507812 281.011719 150.835938 281.089844 150.027344 C 281.117188 149.84375 281.128906 149.589844 281.128906 149.265625 C 281.128906 148.9375 281.128906 148.605469 281.128906 148.265625 C 281.128906 147.925781 281.128906 147.601562 281.128906 147.285156 C 281.128906 146.976562 281.117188 146.714844 281.089844 146.503906 Z M 276.347656 137.695312 C 277.785156 137.695312 279.085938 137.917969 280.246094 138.363281 C 281.410156 138.804688 282.414062 139.417969 283.265625 140.203125 C 284.113281 140.984375 284.792969 141.898438 285.304688 142.941406 C 285.8125 143.984375 286.105469 145.109375 286.183594 146.308594 C 286.210938 146.542969 286.222656 146.84375 286.222656 147.210938 C 286.222656 147.574219 286.222656 147.941406 286.222656 148.304688 C 286.222656 148.671875 286.222656 149.027344 286.222656 149.382812 C 286.222656 149.734375 286.210938 150.027344 286.183594 150.265625 C 286.078125 151.460938 285.777344 152.585938 285.285156 153.628906 C 284.785156 154.675781 284.113281 155.582031 283.265625 156.351562 C 282.414062 157.121094 281.410156 157.726562 280.246094 158.171875 C 279.085938 158.613281 277.785156 158.835938 276.347656 158.835938 C 274.910156 158.835938 273.613281 158.613281 272.449219 158.171875 C 271.289062 157.726562 270.28125 157.121094 269.433594 156.351562 C 268.582031 155.582031 267.910156 154.675781 267.417969 153.628906 C 266.917969 152.585938 266.617188 151.460938 266.515625 150.265625 C 266.488281 150.027344 266.46875 149.734375 266.457031 149.382812 C 266.441406 149.027344 266.4375 148.671875 266.4375 148.304688 C 266.4375 147.941406 266.441406 147.574219 266.457031 147.210938 C 266.46875 146.84375 266.488281 146.542969 266.515625 146.308594 C 266.59375 145.109375 266.886719 143.984375 267.394531 142.941406 C 267.90625 141.898438 268.582031 140.984375 269.433594 140.203125 C 270.28125 139.417969 271.289062 138.804688 272.449219 138.363281 C 273.613281 137.917969 274.910156 137.695312 276.347656 137.695312 " fill-opacity="1" fill-rule="nonzero"/><path fill="#1a323d" d="M 295.785156 140.046875 C 296.410156 139.289062 297.167969 138.707031 298.054688 138.300781 C 298.945312 137.898438 299.871094 137.695312 300.839844 137.695312 C 302.484375 137.695312 303.828125 138.003906 304.875 138.617188 C 305.921875 139.230469 306.742188 140.03125 307.34375 141.023438 C 307.679688 140.5 308.101562 140.03125 308.597656 139.613281 C 309.09375 139.199219 309.621094 138.84375 310.183594 138.558594 C 310.746094 138.269531 311.328125 138.054688 311.925781 137.910156 C 312.527344 137.769531 313.117188 137.695312 313.691406 137.695312 C 315.179688 137.695312 316.417969 137.941406 317.414062 138.441406 C 318.40625 138.9375 319.207031 139.601562 319.820312 140.4375 C 320.4375 141.273438 320.867188 142.246094 321.117188 143.351562 C 321.363281 144.464844 321.488281 145.632812 321.488281 146.855469 L 321.488281 157.386719 C 321.488281 157.675781 321.382812 157.921875 321.175781 158.132812 C 320.964844 158.339844 320.71875 158.445312 320.429688 158.445312 L 317.453125 158.445312 C 317.164062 158.445312 316.917969 158.339844 316.707031 158.132812 C 316.496094 157.921875 316.394531 157.675781 316.394531 157.386719 L 316.394531 147.050781 C 316.394531 145.277344 316.054688 144.039062 315.375 143.332031 C 314.695312 142.628906 313.742188 142.277344 312.515625 142.277344 C 311.46875 142.277344 310.574219 142.613281 309.832031 143.292969 C 309.085938 143.972656 308.6875 145.160156 308.636719 146.855469 L 308.636719 157.386719 C 308.636719 157.675781 308.53125 157.921875 308.324219 158.132812 C 308.113281 158.339844 307.867188 158.445312 307.578125 158.445312 L 304.601562 158.445312 C 304.3125 158.445312 304.0625 158.339844 303.855469 158.132812 C 303.648438 157.921875 303.542969 157.675781 303.542969 157.386719 L 303.542969 147.050781 C 303.542969 145.277344 303.203125 144.039062 302.523438 143.332031 C 301.84375 142.628906 300.890625 142.277344 299.664062 142.277344 C 298.589844 142.277344 297.675781 142.636719 296.917969 143.351562 C 296.160156 144.070312 295.785156 145.304688 295.785156 147.050781 L 295.785156 157.386719 C 295.785156 157.675781 295.679688 157.921875 295.472656 158.132812 C 295.261719 158.339844 295.011719 158.445312 294.726562 158.445312 L 291.746094 158.445312 C 291.460938 158.445312 291.210938 158.339844 291.003906 158.132812 C 290.792969 157.921875 290.691406 157.675781 290.691406 157.386719 L 290.691406 139.144531 C 290.691406 138.859375 290.792969 138.609375 291.003906 138.402344 C 291.210938 138.191406 291.460938 138.085938 291.746094 138.085938 L 294.726562 138.085938 C 295.011719 138.085938 295.261719 138.191406 295.472656 138.402344 C 295.679688 138.609375 295.785156 138.859375 295.785156 139.144531 L 295.785156 140.046875 " fill-opacity="1" fill-rule="nonzero"/><g clip-path="url(#c8e88faac1)"><path fill="#1a323d" d="M 165.453125 40.566406 C 158.566406 40.566406 152.960938 46.164062 152.960938 53.042969 C 152.960938 59.925781 158.566406 65.527344 165.453125 65.527344 L 228.402344 65.527344 C 235.292969 65.527344 240.894531 59.925781 240.894531 53.046875 C 240.894531 46.164062 235.292969 40.566406 228.402344 40.566406 Z M 228.402344 69.527344 L 165.453125 69.527344 C 156.359375 69.527344 148.957031 62.132812 148.957031 53.046875 C 148.957031 43.957031 156.359375 36.566406 165.453125 36.566406 L 228.402344 36.566406 C 237.5 36.566406 244.898438 43.957031 244.898438 53.042969 C 244.898438 62.132812 237.5 69.527344 228.402344 69.527344 " fill-opacity="1" fill-rule="nonzero"/></g><path fill="#1a323d" d="M 168.644531 56.5625 C 168.855469 56.5625 169.035156 56.636719 169.1875 56.789062 C 169.339844 56.941406 169.417969 57.125 169.417969 57.332031 L 169.417969 60.136719 C 169.417969 60.347656 169.339844 60.527344 169.1875 60.679688 C 169.035156 60.832031 168.855469 60.90625 168.644531 60.90625 L 165.980469 60.90625 C 165.769531 60.90625 165.589844 60.832031 165.4375 60.679688 C 165.285156 60.527344 165.207031 60.347656 165.207031 60.136719 L 165.207031 57.332031 C 165.207031 57.125 165.285156 56.941406 165.4375 56.789062 C 165.589844 56.636719 165.769531 56.5625 165.980469 56.5625 L 168.644531 56.5625 " fill-opacity="1" fill-rule="nonzero"/><path fill="#1a323d" d="M 176.03125 52.46875 C 175.992188 52.757812 175.972656 53.089844 175.972656 53.472656 C 175.972656 53.851562 175.992188 54.1875 176.03125 54.472656 C 176.085938 55.0625 176.21875 55.570312 176.429688 55.988281 C 176.640625 56.410156 176.902344 56.746094 177.21875 57.003906 C 177.53125 57.261719 177.878906 57.453125 178.261719 57.574219 C 178.644531 57.699219 179.035156 57.761719 179.4375 57.761719 C 179.914062 57.761719 180.3125 57.722656 180.640625 57.648438 C 180.964844 57.570312 181.238281 57.460938 181.46875 57.320312 C 181.699219 57.175781 181.894531 57.015625 182.054688 56.832031 C 182.21875 56.652344 182.375 56.445312 182.527344 56.214844 C 182.640625 56.046875 182.777344 55.875 182.929688 55.703125 C 183.082031 55.53125 183.261719 55.445312 183.472656 55.445312 L 185.648438 55.445312 C 185.859375 55.445312 186.042969 55.523438 186.207031 55.675781 C 186.367188 55.824219 186.441406 56.007812 186.421875 56.214844 C 186.402344 56.617188 186.257812 57.105469 185.992188 57.675781 C 185.722656 58.25 185.308594 58.796875 184.746094 59.320312 C 184.183594 59.847656 183.464844 60.289062 182.585938 60.652344 C 181.707031 61.011719 180.65625 61.195312 179.4375 61.195312 C 178.386719 61.195312 177.441406 61.015625 176.601562 60.664062 C 175.761719 60.3125 175.03125 59.835938 174.414062 59.234375 C 173.792969 58.632812 173.304688 57.9375 172.953125 57.148438 C 172.597656 56.355469 172.382812 55.523438 172.308594 54.644531 C 172.269531 54.300781 172.25 53.917969 172.25 53.5 C 172.25 53.082031 172.269531 52.6875 172.308594 52.328125 C 172.367188 51.449219 172.574219 50.609375 172.9375 49.8125 C 173.300781 49.011719 173.785156 48.308594 174.398438 47.707031 C 175.007812 47.109375 175.738281 46.632812 176.585938 46.28125 C 177.4375 45.925781 178.386719 45.75 179.4375 45.75 C 180.65625 45.75 181.707031 45.929688 182.585938 46.292969 C 183.464844 46.652344 184.183594 47.097656 184.746094 47.625 C 185.308594 48.148438 185.722656 48.695312 185.992188 49.265625 C 186.257812 49.839844 186.402344 50.324219 186.421875 50.726562 C 186.441406 50.933594 186.367188 51.117188 186.207031 51.269531 C 186.042969 51.421875 185.859375 51.5 185.648438 51.5 L 183.472656 51.5 C 183.261719 51.5 183.082031 51.410156 182.929688 51.242188 C 182.777344 51.070312 182.640625 50.898438 182.527344 50.726562 C 182.375 50.496094 182.21875 50.292969 182.054688 50.109375 C 181.894531 49.929688 181.699219 49.765625 181.46875 49.625 C 181.238281 49.480469 180.964844 49.371094 180.640625 49.296875 C 180.3125 49.21875 179.914062 49.183594 179.4375 49.183594 C 179.035156 49.183594 178.644531 49.242188 178.261719 49.367188 C 177.878906 49.492188 177.53125 49.683594 177.21875 49.941406 C 176.902344 50.195312 176.640625 50.535156 176.429688 50.957031 C 176.21875 51.375 176.085938 51.878906 176.03125 52.46875 " fill-opacity="1" fill-rule="nonzero"/><path fill="#1a323d" d="M 199.5625 52.183594 C 199.503906 51.59375 199.367188 51.101562 199.148438 50.710938 C 198.925781 50.320312 198.65625 50.011719 198.332031 49.78125 C 198.007812 49.550781 197.652344 49.398438 197.269531 49.3125 C 196.890625 49.222656 196.5 49.183594 196.097656 49.183594 C 195.695312 49.183594 195.304688 49.222656 194.925781 49.3125 C 194.542969 49.398438 194.1875 49.550781 193.867188 49.78125 C 193.539062 50.011719 193.269531 50.320312 193.046875 50.710938 C 192.828125 51.101562 192.691406 51.59375 192.632812 52.183594 C 192.613281 52.339844 192.601562 52.527344 192.589844 52.757812 C 192.582031 52.984375 192.578125 53.222656 192.578125 53.472656 C 192.578125 53.71875 192.582031 53.960938 192.589844 54.203125 C 192.601562 54.441406 192.613281 54.625 192.632812 54.757812 C 192.691406 55.351562 192.828125 55.839844 193.046875 56.230469 C 193.269531 56.621094 193.539062 56.933594 193.867188 57.160156 C 194.1875 57.390625 194.542969 57.546875 194.925781 57.632812 C 195.304688 57.71875 195.695312 57.761719 196.097656 57.761719 C 196.5 57.761719 196.890625 57.71875 197.269531 57.632812 C 197.652344 57.546875 198.007812 57.390625 198.332031 57.160156 C 198.65625 56.933594 198.925781 56.621094 199.148438 56.230469 C 199.367188 55.839844 199.503906 55.351562 199.5625 54.757812 C 199.582031 54.625 199.589844 54.441406 199.589844 54.203125 C 199.589844 53.960938 199.589844 53.71875 199.589844 53.472656 C 199.589844 53.222656 199.589844 52.984375 199.589844 52.757812 C 199.589844 52.527344 199.582031 52.339844 199.5625 52.183594 Z M 196.097656 45.75 C 197.148438 45.75 198.097656 45.910156 198.945312 46.234375 C 199.796875 46.558594 200.53125 47.007812 201.152344 47.578125 C 201.769531 48.152344 202.265625 48.820312 202.640625 49.582031 C 203.011719 50.34375 203.226562 51.164062 203.285156 52.042969 C 203.304688 52.214844 203.3125 52.433594 203.3125 52.699219 C 203.3125 52.96875 203.3125 53.234375 203.3125 53.5 C 203.3125 53.769531 203.3125 54.027344 203.3125 54.289062 C 203.3125 54.542969 203.304688 54.757812 203.285156 54.929688 C 203.207031 55.808594 202.988281 56.628906 202.625 57.390625 C 202.261719 58.152344 201.769531 58.816406 201.152344 59.378906 C 200.53125 59.941406 199.796875 60.382812 198.945312 60.707031 C 198.097656 61.03125 197.148438 61.195312 196.097656 61.195312 C 195.046875 61.195312 194.097656 61.03125 193.25 60.707031 C 192.398438 60.382812 191.664062 59.941406 191.042969 59.378906 C 190.425781 58.816406 189.933594 58.152344 189.570312 57.390625 C 189.207031 56.628906 188.988281 55.808594 188.914062 54.929688 C 188.894531 54.757812 188.878906 54.542969 188.871094 54.289062 C 188.859375 54.027344 188.855469 53.769531 188.855469 53.5 C 188.855469 53.234375 188.859375 52.96875 188.871094 52.699219 C 188.878906 52.433594 188.894531 52.214844 188.914062 52.042969 C 188.96875 51.164062 189.183594 50.34375 189.558594 49.582031 C 189.929688 48.820312 190.425781 48.152344 191.042969 47.578125 C 191.664062 47.007812 192.398438 46.558594 193.25 46.234375 C 194.097656 45.910156 195.046875 45.75 196.097656 45.75 " fill-opacity="1" fill-rule="nonzero"/><path fill="#1a323d" d="M 210.296875 47.464844 C 210.753906 46.914062 211.308594 46.488281 211.957031 46.191406 C 212.605469 45.898438 213.285156 45.75 213.988281 45.75 C 215.191406 45.75 216.175781 45.972656 216.941406 46.421875 C 217.703125 46.867188 218.304688 47.457031 218.742188 48.179688 C 218.992188 47.796875 219.296875 47.457031 219.660156 47.152344 C 220.019531 46.847656 220.40625 46.589844 220.816406 46.378906 C 221.226562 46.171875 221.652344 46.011719 222.09375 45.90625 C 222.53125 45.800781 222.960938 45.75 223.378906 45.75 C 224.46875 45.75 225.375 45.929688 226.101562 46.292969 C 226.824219 46.652344 227.414062 47.140625 227.859375 47.753906 C 228.308594 48.363281 228.625 49.070312 228.804688 49.882812 C 228.988281 50.691406 229.078125 51.546875 229.078125 52.441406 L 229.078125 60.136719 C 229.078125 60.347656 229 60.527344 228.847656 60.679688 C 228.695312 60.832031 228.515625 60.90625 228.304688 60.90625 L 226.128906 60.90625 C 225.917969 60.90625 225.738281 60.832031 225.585938 60.679688 C 225.433594 60.527344 225.355469 60.347656 225.355469 60.136719 L 225.355469 52.582031 C 225.355469 51.289062 225.109375 50.382812 224.613281 49.867188 C 224.113281 49.351562 223.417969 49.097656 222.523438 49.097656 C 221.757812 49.097656 221.105469 49.34375 220.5625 49.839844 C 220.015625 50.335938 219.726562 51.203125 219.6875 52.441406 L 219.6875 60.136719 C 219.6875 60.347656 219.609375 60.527344 219.457031 60.679688 C 219.304688 60.832031 219.125 60.90625 218.914062 60.90625 L 216.738281 60.90625 C 216.527344 60.90625 216.347656 60.832031 216.195312 60.679688 C 216.042969 60.527344 215.964844 60.347656 215.964844 60.136719 L 215.964844 52.582031 C 215.964844 51.289062 215.71875 50.382812 215.222656 49.867188 C 214.726562 49.351562 214.027344 49.097656 213.132812 49.097656 C 212.347656 49.097656 211.679688 49.355469 211.128906 49.882812 C 210.574219 50.40625 210.296875 51.308594 210.296875 52.582031 L 210.296875 60.136719 C 210.296875 60.347656 210.21875 60.527344 210.066406 60.679688 C 209.914062 60.832031 209.734375 60.90625 209.523438 60.90625 L 207.347656 60.90625 C 207.136719 60.90625 206.957031 60.832031 206.804688 60.679688 C 206.652344 60.527344 206.574219 60.347656 206.574219 60.136719 L 206.574219 46.808594 C 206.574219 46.597656 206.652344 46.417969 206.804688 46.265625 C 206.957031 46.109375 207.136719 46.035156 207.347656 46.035156 L 209.523438 46.035156 C 209.734375 46.035156 209.914062 46.109375 210.066406 46.265625 C 210.21875 46.417969 210.296875 46.597656 210.296875 46.808594 L 210.296875 47.464844 " fill-opacity="1" fill-rule="nonzero"/><path fill="#1a323d" d="M 250.941406 4 C 244.050781 4 238.449219 9.597656 238.449219 16.480469 C 238.449219 23.363281 244.050781 28.960938 250.941406 28.960938 L 313.890625 28.960938 C 320.777344 28.960938 326.382812 23.363281 326.382812 16.480469 C 326.382812 9.597656 320.777344 4 313.890625 4 Z M 313.890625 32.960938 L 250.941406 32.960938 C 241.84375 32.960938 234.445312 25.566406 234.445312 16.480469 C 234.445312 7.390625 241.84375 0 250.941406 0 L 313.890625 0 C 322.984375 0 330.386719 7.390625 330.386719 16.480469 C 330.386719 25.566406 322.984375 32.960938 313.890625 32.960938 " fill-opacity="1" fill-rule="nonzero"/><path fill="#1a323d" d="M 254.128906 19.996094 C 254.339844 19.996094 254.523438 20.070312 254.675781 20.226562 C 254.828125 20.378906 254.90625 20.558594 254.90625 20.769531 L 254.90625 23.574219 C 254.90625 23.78125 254.828125 23.964844 254.675781 24.113281 C 254.523438 24.269531 254.339844 24.34375 254.128906 24.34375 L 251.46875 24.34375 C 251.257812 24.34375 251.078125 24.269531 250.925781 24.113281 C 250.773438 23.964844 250.695312 23.78125 250.695312 23.574219 L 250.695312 20.769531 C 250.695312 20.558594 250.773438 20.378906 250.925781 20.226562 C 251.078125 20.070312 251.257812 19.996094 251.46875 19.996094 L 254.128906 19.996094 " fill-opacity="1" fill-rule="nonzero"/><path fill="#1a323d" d="M 261.519531 15.90625 C 261.476562 16.191406 261.457031 16.527344 261.457031 16.90625 C 261.457031 17.289062 261.476562 17.621094 261.519531 17.90625 C 261.574219 18.5 261.707031 19.003906 261.917969 19.425781 C 262.128906 19.84375 262.390625 20.179688 262.707031 20.441406 C 263.019531 20.695312 263.367188 20.886719 263.75 21.011719 C 264.132812 21.132812 264.523438 21.195312 264.921875 21.195312 C 265.402344 21.195312 265.800781 21.160156 266.125 21.082031 C 266.449219 21.007812 266.726562 20.894531 266.957031 20.753906 C 267.1875 20.613281 267.382812 20.449219 267.542969 20.269531 C 267.707031 20.085938 267.863281 19.882812 268.015625 19.652344 C 268.128906 19.480469 268.261719 19.308594 268.417969 19.136719 C 268.566406 18.96875 268.75 18.882812 268.960938 18.882812 L 271.136719 18.882812 C 271.347656 18.882812 271.53125 18.957031 271.695312 19.109375 C 271.855469 19.261719 271.925781 19.441406 271.910156 19.652344 C 271.890625 20.054688 271.746094 20.539062 271.480469 21.109375 C 271.210938 21.683594 270.796875 22.230469 270.234375 22.757812 C 269.671875 23.28125 268.949219 23.722656 268.070312 24.085938 C 267.195312 24.449219 266.144531 24.628906 264.921875 24.628906 C 263.875 24.628906 262.929688 24.453125 262.089844 24.101562 C 261.25 23.75 260.519531 23.269531 259.898438 22.667969 C 259.28125 22.070312 258.792969 21.375 258.441406 20.582031 C 258.085938 19.789062 257.871094 18.957031 257.792969 18.078125 C 257.757812 17.738281 257.738281 17.355469 257.738281 16.9375 C 257.738281 16.515625 257.757812 16.125 257.792969 15.765625 C 257.851562 14.886719 258.0625 14.046875 258.425781 13.246094 C 258.785156 12.445312 259.273438 11.742188 259.886719 11.144531 C 260.496094 10.542969 261.226562 10.066406 262.074219 9.714844 C 262.925781 9.359375 263.875 9.183594 264.921875 9.183594 C 266.144531 9.183594 267.195312 9.367188 268.070312 9.726562 C 268.949219 10.089844 269.671875 10.535156 270.234375 11.058594 C 270.796875 11.582031 271.210938 12.132812 271.480469 12.703125 C 271.746094 13.273438 271.890625 13.761719 271.910156 14.160156 C 271.925781 14.371094 271.855469 14.550781 271.695312 14.707031 C 271.53125 14.859375 271.347656 14.933594 271.136719 14.933594 L 268.960938 14.933594 C 268.75 14.933594 268.566406 14.847656 268.417969 14.675781 C 268.261719 14.503906 268.128906 14.332031 268.015625 14.160156 C 267.863281 13.933594 267.707031 13.726562 267.542969 13.546875 C 267.382812 13.367188 267.1875 13.203125 266.957031 13.058594 C 266.726562 12.917969 266.449219 12.808594 266.125 12.730469 C 265.800781 12.65625 265.402344 12.617188 264.921875 12.617188 C 264.523438 12.617188 264.132812 12.679688 263.75 12.800781 C 263.367188 12.925781 263.019531 13.117188 262.707031 13.375 C 262.390625 13.628906 262.128906 13.96875 261.917969 14.390625 C 261.707031 14.8125 261.574219 15.316406 261.519531 15.90625 " fill-opacity="1" fill-rule="nonzero"/><path fill="#1a323d" d="M 285.050781 15.617188 C 284.992188 15.03125 284.851562 14.539062 284.632812 14.144531 C 284.414062 13.753906 284.144531 13.445312 283.816406 13.21875 C 283.492188 12.988281 283.140625 12.832031 282.761719 12.746094 C 282.378906 12.660156 281.984375 12.617188 281.585938 12.617188 C 281.183594 12.617188 280.792969 12.660156 280.414062 12.746094 C 280.03125 12.832031 279.675781 12.988281 279.351562 13.21875 C 279.027344 13.445312 278.753906 13.753906 278.535156 14.144531 C 278.316406 14.539062 278.179688 15.03125 278.121094 15.617188 C 278.101562 15.773438 278.089844 15.964844 278.078125 16.191406 C 278.070312 16.421875 278.066406 16.660156 278.066406 16.90625 C 278.066406 17.15625 278.070312 17.398438 278.078125 17.636719 C 278.089844 17.875 278.101562 18.0625 278.121094 18.195312 C 278.179688 18.785156 278.316406 19.277344 278.535156 19.664062 C 278.753906 20.058594 279.027344 20.367188 279.351562 20.597656 C 279.675781 20.824219 280.03125 20.980469 280.414062 21.070312 C 280.792969 21.152344 281.183594 21.195312 281.585938 21.195312 C 281.984375 21.195312 282.378906 21.152344 282.761719 21.070312 C 283.140625 20.980469 283.492188 20.824219 283.816406 20.597656 C 284.144531 20.367188 284.414062 20.058594 284.632812 19.664062 C 284.851562 19.277344 284.992188 18.785156 285.050781 18.195312 C 285.066406 18.0625 285.078125 17.875 285.078125 17.636719 C 285.078125 17.398438 285.078125 17.15625 285.078125 16.90625 C 285.078125 16.660156 285.078125 16.421875 285.078125 16.191406 C 285.078125 15.964844 285.066406 15.773438 285.050781 15.617188 Z M 281.585938 9.183594 C 282.636719 9.183594 283.585938 9.34375 284.433594 9.671875 C 285.285156 9.992188 286.019531 10.445312 286.640625 11.015625 C 287.257812 11.589844 287.753906 12.253906 288.128906 13.015625 C 288.5 13.78125 288.714844 14.601562 288.773438 15.476562 C 288.789062 15.648438 288.800781 15.867188 288.800781 16.132812 C 288.800781 16.402344 288.800781 16.667969 288.800781 16.9375 C 288.800781 17.203125 288.800781 17.464844 288.800781 17.722656 C 288.800781 17.980469 288.789062 18.195312 288.773438 18.367188 C 288.695312 19.242188 288.476562 20.0625 288.113281 20.824219 C 287.75 21.589844 287.257812 22.25 286.640625 22.8125 C 286.019531 23.375 285.285156 23.820312 284.433594 24.144531 C 283.585938 24.46875 282.636719 24.628906 281.585938 24.628906 C 280.535156 24.628906 279.585938 24.46875 278.738281 24.144531 C 277.886719 23.820312 277.152344 23.375 276.535156 22.8125 C 275.910156 22.25 275.421875 21.589844 275.058594 20.824219 C 274.695312 20.0625 274.472656 19.242188 274.398438 18.367188 C 274.378906 18.195312 274.363281 17.980469 274.355469 17.722656 C 274.347656 17.464844 274.34375 17.203125 274.34375 16.9375 C 274.34375 16.667969 274.347656 16.402344 274.355469 16.132812 C 274.363281 15.867188 274.378906 15.648438 274.398438 15.476562 C 274.457031 14.601562 274.671875 13.78125 275.042969 13.015625 C 275.417969 12.253906 275.910156 11.589844 276.535156 11.015625 C 277.152344 10.445312 277.886719 9.992188 278.738281 9.671875 C 279.585938 9.34375 280.535156 9.183594 281.585938 9.183594 " fill-opacity="1" fill-rule="nonzero"/><path fill="#1a323d" d="M 295.785156 10.898438 C 296.242188 10.347656 296.796875 9.925781 297.445312 9.628906 C 298.09375 9.332031 298.769531 9.183594 299.476562 9.183594 C 300.679688 9.183594 301.664062 9.410156 302.425781 9.855469 C 303.191406 10.304688 303.792969 10.890625 304.230469 11.617188 C 304.476562 11.234375 304.785156 10.890625 305.144531 10.585938 C 305.507812 10.28125 305.894531 10.023438 306.304688 9.816406 C 306.714844 9.605469 307.140625 9.445312 307.582031 9.339844 C 308.015625 9.238281 308.449219 9.183594 308.867188 9.183594 C 309.957031 9.183594 310.859375 9.367188 311.585938 9.726562 C 312.3125 10.089844 312.898438 10.578125 313.347656 11.1875 C 313.796875 11.796875 314.109375 12.507812 314.292969 13.316406 C 314.476562 14.128906 314.566406 14.980469 314.566406 15.878906 L 314.566406 23.574219 C 314.566406 23.78125 314.488281 23.964844 314.335938 24.113281 C 314.183594 24.269531 314 24.34375 313.792969 24.34375 L 311.617188 24.34375 C 311.40625 24.34375 311.226562 24.269531 311.070312 24.113281 C 310.921875 23.964844 310.84375 23.78125 310.84375 23.574219 L 310.84375 16.019531 C 310.84375 14.722656 310.59375 13.816406 310.101562 13.300781 C 309.601562 12.789062 308.90625 12.53125 308.007812 12.53125 C 307.246094 12.53125 306.589844 12.777344 306.046875 13.273438 C 305.503906 13.769531 305.210938 14.636719 305.171875 15.878906 L 305.171875 23.574219 C 305.171875 23.78125 305.097656 23.964844 304.945312 24.113281 C 304.792969 24.269531 304.613281 24.34375 304.402344 24.34375 L 302.226562 24.34375 C 302.015625 24.34375 301.835938 24.269531 301.683594 24.113281 C 301.527344 23.964844 301.453125 23.78125 301.453125 23.574219 L 301.453125 16.019531 C 301.453125 14.722656 301.203125 13.816406 300.707031 13.300781 C 300.210938 12.789062 299.515625 12.53125 298.621094 12.53125 C 297.835938 12.53125 297.167969 12.792969 296.613281 13.316406 C 296.0625 13.839844 295.785156 14.742188 295.785156 16.019531 L 295.785156 23.574219 C 295.785156 23.78125 295.707031 23.964844 295.558594 24.113281 C 295.402344 24.269531 295.21875 24.34375 295.011719 24.34375 L 292.835938 24.34375 C 292.625 24.34375 292.445312 24.269531 292.292969 24.113281 C 292.136719 23.964844 292.0625 23.78125 292.0625 23.574219 L 292.0625 10.242188 C 292.0625 10.035156 292.136719 9.851562 292.292969 9.699219 C 292.445312 9.546875 292.625 9.46875 292.835938 9.46875 L 295.011719 9.46875 C 295.21875 9.46875 295.402344 9.546875 295.558594 9.699219 C 295.707031 9.851562 295.785156 10.035156 295.785156 10.242188 L 295.785156 10.898438 " fill-opacity="1" fill-rule="nonzero"/><path fill="#1a323d" d="M 188.742188 86.117188 C 180.839844 86.117188 174.410156 92.539062 174.410156 100.433594 C 174.410156 108.332031 180.839844 114.753906 188.742188 114.753906 L 259.683594 114.753906 C 267.585938 114.753906 274.015625 108.332031 274.015625 100.4375 C 274.015625 92.539062 267.585938 86.117188 259.683594 86.117188 Z M 259.683594 118.753906 L 188.742188 118.753906 C 178.632812 118.753906 170.410156 110.535156 170.410156 100.4375 C 170.410156 90.335938 178.632812 82.117188 188.742188 82.117188 L 259.683594 82.117188 C 269.789062 82.117188 278.015625 90.335938 278.015625 100.433594 C 278.015625 110.535156 269.789062 118.753906 259.683594 118.753906 " fill-opacity="1" fill-rule="nonzero"/><path fill="#1a323d" d="M 202.289062 104.84375 C 202.5 104.84375 202.675781 104.921875 202.828125 105.070312 C 202.980469 105.222656 203.054688 105.402344 203.054688 105.609375 L 203.054688 108.382812 C 203.054688 108.59375 202.980469 108.773438 202.828125 108.921875 C 202.675781 109.074219 202.5 109.148438 202.289062 109.148438 L 199.65625 109.148438 C 199.445312 109.148438 199.269531 109.074219 199.117188 108.921875 C 198.964844 108.773438 198.890625 108.59375 198.890625 108.382812 L 198.890625 105.609375 C 198.890625 105.402344 198.964844 105.222656 199.117188 105.070312 C 199.269531 104.921875 199.445312 104.84375 199.65625 104.84375 L 202.289062 104.84375 " fill-opacity="1" fill-rule="nonzero"/><path fill="#1a323d" d="M 220.457031 108.382812 C 220.457031 108.59375 220.378906 108.773438 220.230469 108.921875 C 220.078125 109.074219 219.898438 109.148438 219.691406 109.148438 L 217.539062 109.148438 C 217.328125 109.148438 217.148438 109.074219 217 108.921875 C 216.847656 108.773438 216.773438 108.59375 216.773438 108.382812 L 216.773438 101.191406 C 216.773438 100.058594 216.507812 99.152344 215.980469 98.472656 C 215.449219 97.792969 214.636719 97.453125 213.542969 97.453125 C 212.539062 97.453125 211.75 97.792969 211.175781 98.472656 C 210.597656 99.152344 210.3125 100.058594 210.3125 101.191406 L 210.3125 108.382812 C 210.3125 108.59375 210.234375 108.773438 210.085938 108.921875 C 209.933594 109.074219 209.753906 109.148438 209.546875 109.148438 L 207.390625 109.148438 C 207.183594 109.148438 207.003906 109.074219 206.851562 108.921875 C 206.703125 108.773438 206.625 108.59375 206.625 108.382812 L 206.625 95.1875 C 206.625 94.980469 206.703125 94.804688 206.851562 94.652344 C 207.003906 94.5 207.183594 94.425781 207.390625 94.425781 L 209.546875 94.425781 C 209.753906 94.425781 209.933594 94.5 210.085938 94.652344 C 210.234375 94.804688 210.3125 94.980469 210.3125 95.1875 L 210.3125 95.839844 C 210.800781 95.347656 211.378906 94.945312 212.039062 94.625 C 212.699219 94.304688 213.484375 94.140625 214.390625 94.140625 C 215.542969 94.140625 216.507812 94.320312 217.28125 94.679688 C 218.058594 95.039062 218.679688 95.519531 219.152344 96.121094 C 219.625 96.726562 219.960938 97.433594 220.160156 98.234375 C 220.359375 99.035156 220.457031 99.878906 220.457031 100.769531 L 220.457031 108.382812 " fill-opacity="1" fill-rule="nonzero"/><path fill="#1a323d" d="M 230.433594 97.539062 C 229.882812 97.539062 229.417969 97.621094 229.03125 97.78125 C 228.640625 97.941406 228.316406 98.148438 228.050781 98.402344 C 227.785156 98.65625 227.582031 98.941406 227.441406 99.253906 C 227.300781 99.5625 227.210938 99.859375 227.171875 100.144531 L 233.578125 100.144531 C 233.539062 99.859375 233.46875 99.5625 233.363281 99.253906 C 233.261719 98.941406 233.089844 98.65625 232.855469 98.402344 C 232.621094 98.148438 232.308594 97.941406 231.921875 97.78125 C 231.53125 97.621094 231.035156 97.539062 230.433594 97.539062 Z M 223.488281 101.789062 C 223.488281 100.730469 223.648438 99.734375 223.96875 98.800781 C 224.292969 97.867188 224.753906 97.054688 225.359375 96.363281 C 225.964844 95.675781 226.695312 95.132812 227.554688 94.734375 C 228.414062 94.339844 229.375 94.140625 230.433594 94.140625 C 231.488281 94.140625 232.449219 94.335938 233.308594 94.722656 C 234.167969 95.109375 234.898438 95.628906 235.503906 96.277344 C 236.109375 96.929688 236.578125 97.695312 236.910156 98.574219 C 237.238281 99.449219 237.402344 100.371094 237.402344 101.332031 L 237.402344 102.609375 C 237.402344 102.816406 237.328125 102.996094 237.175781 103.148438 C 237.027344 103.296875 236.847656 103.371094 236.636719 103.371094 L 227.171875 103.371094 C 227.171875 103.804688 227.261719 104.1875 227.441406 104.519531 C 227.621094 104.851562 227.863281 105.128906 228.164062 105.355469 C 228.464844 105.578125 228.816406 105.75 229.214844 105.863281 C 229.609375 105.976562 230.015625 106.035156 230.433594 106.035156 C 231.035156 106.035156 231.527344 105.972656 231.90625 105.851562 C 232.285156 105.726562 232.59375 105.570312 232.839844 105.382812 C 233.046875 105.230469 233.21875 105.128906 233.351562 105.070312 C 233.484375 105.015625 233.664062 104.984375 233.890625 104.984375 L 236.15625 104.984375 C 236.363281 104.984375 236.550781 105.0625 236.710938 105.210938 C 236.871094 105.363281 236.941406 105.542969 236.921875 105.75 C 236.902344 106.015625 236.757812 106.355469 236.480469 106.769531 C 236.207031 107.183594 235.796875 107.589844 235.25 107.988281 C 234.703125 108.382812 234.027344 108.722656 233.222656 109.007812 C 232.421875 109.289062 231.488281 109.433594 230.433594 109.433594 C 229.375 109.433594 228.414062 109.246094 227.554688 108.878906 C 226.695312 108.511719 225.964844 107.988281 225.359375 107.308594 C 224.753906 106.628906 224.292969 105.820312 223.96875 104.886719 C 223.648438 103.953125 223.488281 102.917969 223.488281 101.789062 " fill-opacity="1" fill-rule="nonzero"/><path fill="#1a323d" d="M 245.453125 103.828125 C 245.453125 104.410156 245.609375 104.878906 245.921875 105.226562 C 246.230469 105.574219 246.8125 105.75 247.664062 105.75 L 249.390625 105.75 C 249.597656 105.75 249.777344 105.824219 249.929688 105.976562 C 250.082031 106.128906 250.15625 106.308594 250.15625 106.515625 L 250.15625 108.382812 C 250.15625 108.59375 250.082031 108.773438 249.929688 108.921875 C 249.777344 109.074219 249.597656 109.148438 249.390625 109.148438 L 247.292969 109.148438 C 245.519531 109.148438 244.152344 108.71875 243.199219 107.859375 C 242.246094 107 241.769531 105.683594 241.769531 103.910156 L 241.769531 97.820312 L 239.898438 97.820312 C 239.691406 97.820312 239.511719 97.746094 239.359375 97.597656 C 239.207031 97.445312 239.132812 97.265625 239.132812 97.058594 L 239.132812 95.1875 C 239.132812 94.980469 239.207031 94.804688 239.359375 94.652344 C 239.511719 94.5 239.691406 94.425781 239.898438 94.425781 L 241.769531 94.425781 L 241.769531 89.808594 C 241.769531 89.601562 241.84375 89.421875 241.996094 89.273438 C 242.144531 89.121094 242.324219 89.042969 242.535156 89.042969 L 244.6875 89.042969 C 244.894531 89.042969 245.074219 89.121094 245.226562 89.273438 C 245.375 89.421875 245.453125 89.601562 245.453125 89.808594 L 245.453125 94.425781 L 249.109375 94.425781 C 249.316406 94.425781 249.496094 94.5 249.648438 94.652344 C 249.796875 94.804688 249.875 94.980469 249.875 95.1875 L 249.875 97.058594 C 249.875 97.265625 249.796875 97.445312 249.648438 97.597656 C 249.496094 97.746094 249.316406 97.820312 249.109375 97.820312 L 245.453125 97.820312 L 245.453125 103.828125 " fill-opacity="1" fill-rule="nonzero"/><g clip-path="url(#75a09d6dfe)"><path fill="#1a323d" d="M 285.566406 58.027344 C 279.242188 58.027344 274.097656 63.167969 274.097656 69.484375 C 274.097656 75.808594 279.242188 80.949219 285.566406 80.949219 L 344.078125 80.949219 C 350.398438 80.949219 355.546875 75.808594 355.546875 69.488281 C 355.546875 63.167969 350.398438 58.027344 344.078125 58.027344 Z M 344.078125 84.945312 L 285.566406 84.945312 C 277.035156 84.945312 270.09375 78.011719 270.09375 69.488281 C 270.09375 60.960938 277.035156 54.027344 285.566406 54.027344 L 344.078125 54.027344 C 352.605469 54.027344 359.550781 60.960938 359.550781 69.484375 C 359.550781 78.011719 352.605469 84.945312 344.078125 84.945312 " fill-opacity="1" fill-rule="nonzero"/></g><path fill="#1a323d" d="M 292.152344 71.167969 C 292.328125 71.167969 292.480469 71.230469 292.609375 71.359375 C 292.738281 71.488281 292.804688 71.640625 292.804688 71.816406 L 292.804688 74.175781 C 292.804688 74.355469 292.738281 74.503906 292.609375 74.636719 C 292.480469 74.765625 292.328125 74.828125 292.152344 74.828125 L 289.910156 74.828125 C 289.734375 74.828125 289.578125 74.765625 289.449219 74.636719 C 289.324219 74.503906 289.257812 74.355469 289.257812 74.175781 L 289.257812 71.816406 C 289.257812 71.640625 289.324219 71.488281 289.449219 71.359375 C 289.578125 71.230469 289.734375 71.167969 289.910156 71.167969 L 292.152344 71.167969 " fill-opacity="1" fill-rule="nonzero"/><path fill="#1a323d" d="M 304.277344 67.480469 C 304.230469 66.984375 304.113281 66.570312 303.925781 66.242188 C 303.742188 65.914062 303.515625 65.652344 303.242188 65.457031 C 302.96875 65.265625 302.667969 65.132812 302.351562 65.058594 C 302.027344 64.988281 301.699219 64.953125 301.359375 64.953125 C 301.023438 64.953125 300.691406 64.988281 300.371094 65.058594 C 300.050781 65.132812 299.753906 65.265625 299.480469 65.457031 C 299.207031 65.652344 298.976562 65.914062 298.792969 66.242188 C 298.609375 66.570312 298.492188 66.984375 298.445312 67.480469 C 298.425781 67.609375 298.414062 67.773438 298.40625 67.960938 C 298.398438 68.15625 298.394531 68.355469 298.394531 68.566406 C 298.394531 68.773438 298.398438 68.980469 298.40625 69.179688 C 298.414062 69.378906 298.425781 69.535156 298.445312 69.648438 C 298.492188 70.148438 298.609375 70.558594 298.792969 70.886719 C 298.976562 71.21875 299.207031 71.480469 299.480469 71.671875 C 299.753906 71.863281 300.050781 71.996094 300.371094 72.070312 C 300.691406 72.140625 301.023438 72.175781 301.359375 72.175781 C 301.699219 72.175781 302.027344 72.140625 302.351562 72.070312 C 302.667969 71.996094 302.96875 71.863281 303.242188 71.671875 C 303.515625 71.480469 303.742188 71.21875 303.925781 70.886719 C 304.113281 70.558594 304.230469 70.148438 304.277344 69.648438 C 304.292969 69.535156 304.300781 69.378906 304.300781 69.179688 C 304.300781 68.980469 304.300781 68.773438 304.300781 68.566406 C 304.300781 68.355469 304.300781 68.15625 304.300781 67.960938 C 304.300781 67.773438 304.292969 67.609375 304.277344 67.480469 Z M 301.359375 62.0625 C 302.246094 62.0625 303.042969 62.199219 303.757812 62.472656 C 304.472656 62.746094 305.09375 63.121094 305.617188 63.601562 C 306.140625 64.085938 306.554688 64.648438 306.871094 65.289062 C 307.183594 65.933594 307.363281 66.621094 307.414062 67.363281 C 307.425781 67.507812 307.4375 67.691406 307.4375 67.914062 C 307.4375 68.140625 307.4375 68.367188 307.4375 68.589844 C 307.4375 68.816406 307.4375 69.035156 307.4375 69.25 C 307.4375 69.46875 307.425781 69.648438 307.414062 69.792969 C 307.347656 70.53125 307.160156 71.222656 306.855469 71.863281 C 306.550781 72.507812 306.140625 73.066406 305.617188 73.539062 C 305.09375 74.011719 304.472656 74.386719 303.757812 74.660156 C 303.042969 74.929688 302.246094 75.070312 301.359375 75.070312 C 300.476562 75.070312 299.675781 74.929688 298.960938 74.660156 C 298.246094 74.386719 297.628906 74.011719 297.105469 73.539062 C 296.582031 73.066406 296.167969 72.507812 295.863281 71.863281 C 295.558594 71.222656 295.371094 70.53125 295.308594 69.792969 C 295.292969 69.648438 295.28125 69.46875 295.273438 69.25 C 295.265625 69.035156 295.261719 68.816406 295.261719 68.589844 C 295.261719 68.367188 295.265625 68.140625 295.273438 67.914062 C 295.28125 67.691406 295.292969 67.507812 295.308594 67.363281 C 295.355469 66.621094 295.539062 65.933594 295.851562 65.289062 C 296.164062 64.648438 296.582031 64.085938 297.105469 63.601562 C 297.628906 63.121094 298.246094 62.746094 298.960938 62.472656 C 299.675781 62.199219 300.476562 62.0625 301.359375 62.0625 " fill-opacity="1" fill-rule="nonzero"/><path fill="#1a323d" d="M 316.042969 65.191406 C 315.078125 65.191406 314.382812 65.40625 313.957031 65.832031 C 313.53125 66.257812 313.320312 66.953125 313.320312 67.914062 L 313.320312 74.175781 C 313.320312 74.355469 313.253906 74.503906 313.125 74.636719 C 312.996094 74.765625 312.84375 74.828125 312.667969 74.828125 L 310.835938 74.828125 C 310.660156 74.828125 310.503906 74.765625 310.375 74.636719 C 310.25 74.503906 310.183594 74.355469 310.183594 74.175781 L 310.183594 62.953125 C 310.183594 62.777344 310.25 62.625 310.375 62.496094 C 310.503906 62.367188 310.660156 62.300781 310.835938 62.300781 L 312.667969 62.300781 C 312.84375 62.300781 312.996094 62.367188 313.125 62.496094 C 313.253906 62.625 313.320312 62.777344 313.320312 62.953125 L 313.320312 63.507812 C 313.734375 63.121094 314.183594 62.824219 314.65625 62.617188 C 315.132812 62.40625 315.753906 62.300781 316.523438 62.300781 L 317.609375 62.300781 C 317.785156 62.300781 317.9375 62.367188 318.070312 62.496094 C 318.195312 62.625 318.261719 62.777344 318.261719 62.953125 L 318.261719 64.542969 C 318.261719 64.71875 318.195312 64.871094 318.070312 65 C 317.9375 65.128906 317.785156 65.191406 317.609375 65.191406 L 316.042969 65.191406 " fill-opacity="1" fill-rule="nonzero"/><path fill="#1a323d" d="M 322.648438 67.890625 C 322.601562 68.339844 322.601562 68.789062 322.648438 69.242188 C 322.746094 70.285156 323.066406 71.035156 323.613281 71.492188 C 324.160156 71.949219 324.828125 72.175781 325.613281 72.175781 C 326.402344 72.175781 327.066406 71.945312 327.601562 71.480469 C 328.140625 71.015625 328.453125 70.347656 328.53125 69.480469 C 328.5625 69.242188 328.578125 68.933594 328.578125 68.566406 C 328.578125 68.195312 328.5625 67.890625 328.53125 67.648438 C 328.453125 66.816406 328.140625 66.15625 327.601562 65.671875 C 327.066406 65.191406 326.402344 64.953125 325.613281 64.953125 C 324.828125 64.953125 324.160156 65.179688 323.613281 65.636719 C 323.066406 66.097656 322.746094 66.847656 322.648438 67.890625 Z M 325.542969 77.238281 C 325.878906 77.238281 326.226562 77.183594 326.578125 77.078125 C 326.929688 76.972656 327.253906 76.808594 327.542969 76.585938 C 327.832031 76.359375 328.070312 76.074219 328.253906 75.730469 C 328.4375 75.386719 328.53125 74.980469 328.53125 74.515625 L 328.53125 73.621094 C 328.402344 73.765625 328.234375 73.925781 328.027344 74.09375 C 327.816406 74.261719 327.5625 74.417969 327.265625 74.5625 C 326.96875 74.707031 326.621094 74.828125 326.230469 74.925781 C 325.832031 75.019531 325.390625 75.070312 324.890625 75.070312 C 324.089844 75.070312 323.359375 74.910156 322.710938 74.597656 C 322.058594 74.285156 321.503906 73.867188 321.046875 73.347656 C 320.585938 72.824219 320.226562 72.222656 319.960938 71.539062 C 319.695312 70.859375 319.546875 70.148438 319.515625 69.410156 C 319.5 69.167969 319.492188 68.886719 319.492188 68.566406 C 319.492188 68.246094 319.5 67.960938 319.515625 67.722656 C 319.546875 66.984375 319.695312 66.273438 319.960938 65.589844 C 320.226562 64.90625 320.585938 64.304688 321.046875 63.785156 C 321.503906 63.261719 322.058594 62.84375 322.710938 62.53125 C 323.359375 62.21875 324.089844 62.0625 324.890625 62.0625 C 325.390625 62.0625 325.832031 62.109375 326.230469 62.207031 C 326.621094 62.300781 326.96875 62.421875 327.265625 62.566406 C 327.5625 62.710938 327.816406 62.867188 328.027344 63.039062 C 328.234375 63.203125 328.402344 63.363281 328.53125 63.507812 L 328.53125 62.953125 C 328.53125 62.777344 328.597656 62.625 328.722656 62.496094 C 328.855469 62.367188 329.003906 62.300781 329.183594 62.300781 L 331.015625 62.300781 C 331.191406 62.300781 331.34375 62.367188 331.472656 62.496094 C 331.601562 62.625 331.667969 62.777344 331.667969 62.953125 L 331.667969 74.25 C 331.667969 76.191406 331.121094 77.65625 330.039062 78.648438 C 328.953125 79.632812 327.453125 80.125 325.542969 80.125 C 324.722656 80.125 323.964844 80.019531 323.265625 79.800781 C 322.566406 79.585938 321.957031 79.296875 321.445312 78.933594 C 320.929688 78.574219 320.519531 78.164062 320.214844 77.707031 C 319.90625 77.25 319.738281 76.78125 319.707031 76.296875 C 319.691406 76.117188 319.75 75.96875 319.886719 75.839844 C 320.023438 75.710938 320.183594 75.648438 320.359375 75.648438 L 322 75.648438 C 322.222656 75.648438 322.414062 75.722656 322.574219 75.875 C 322.738281 76.027344 322.875 76.167969 322.984375 76.296875 C 323.195312 76.570312 323.480469 76.792969 323.84375 76.972656 C 324.203125 77.148438 324.769531 77.238281 325.542969 77.238281 " fill-opacity="1" fill-rule="nonzero"/><path fill="#7d177c" d="M 342.425781 291.738281 C 334.550781 284.277344 307.195312 260.648438 283.980469 244.070312 C 330.820312 176.089844 237.554688 97.75 178.695312 156.609375 C 119.835938 215.46875 197.765625 308.734375 266.15625 261.480469 C 282.738281 284.691406 305.949219 312.046875 313.824219 319.925781 C 327.089844 333.1875 344.5 337.75 352.375 329.871094 C 359.835938 321.996094 355.691406 305.003906 342.425781 291.738281 Z M 271.546875 235.78125 C 269.886719 238.265625 267.816406 240.753906 265.328125 243.242188 C 262.839844 245.726562 260.355469 247.800781 257.867188 249.457031 C 248.75 255.675781 238.386719 258.992188 227.195312 258.992188 C 179.523438 258.992188 155.070312 200.960938 189.058594 166.972656 C 199.421875 156.609375 212.6875 151.21875 227.195312 151.21875 C 270.71875 151.21875 296.417969 200.132812 271.546875 235.78125 Z M 336.625 322.824219 C 332.480469 322.824219 329.164062 319.511719 329.164062 315.363281 C 329.164062 311.21875 332.480469 307.902344 336.625 307.902344 C 340.769531 307.902344 344.085938 311.21875 344.085938 315.363281 C 344.085938 319.511719 340.769531 322.824219 336.625 322.824219 Z M 336.625 322.824219 " fill-opacity="1" fill-rule="nonzero"/><path fill="#7d177c" d="M 225.535156 203.863281 L 225.535156 235.78125 C 220.5625 234.949219 216.003906 230.804688 212.6875 224.171875 L 205.640625 226.246094 L 204.394531 241.167969 C 204.394531 242.410156 203.152344 243.242188 201.910156 243.242188 C 200.664062 243.242188 199.835938 241.996094 199.835938 240.753906 L 201.496094 224.585938 C 201.496094 223.757812 202.324219 222.929688 203.152344 222.515625 L 211.441406 220.441406 C 210.613281 217.957031 210.199219 215.46875 209.785156 212.980469 C 209.785156 212.980469 209.371094 212.980469 209.371094 212.980469 L 198.59375 210.496094 C 197.765625 210.496094 197.347656 209.664062 196.933594 209.25 L 192.375 197.644531 C 191.960938 196.402344 192.375 195.15625 193.617188 194.742188 C 194.863281 194.328125 196.105469 194.742188 196.519531 195.988281 L 200.664062 206.347656 L 208.957031 208.421875 C 208.957031 207.179688 208.957031 205.933594 208.957031 204.691406 L 225.535156 204.691406 Z M 225.535156 203.863281 " fill-opacity="1" fill-rule="nonzero"/><path fill="#7d177c" d="M 254.136719 167.800781 C 254.136719 169.042969 253.308594 170.285156 252.0625 170.285156 C 242.53125 171.117188 238.386719 182.308594 237.554688 186.039062 C 241.285156 189.769531 243.359375 194.742188 242.117188 200.132812 L 212.6875 200.132812 C 211.441406 195.15625 213.101562 189.769531 217.246094 185.625 C 216.003906 181.894531 211.855469 171.117188 202.738281 170.285156 C 201.496094 170.285156 200.664062 169.042969 200.664062 167.800781 C 200.664062 166.554688 201.910156 165.726562 203.152344 165.726562 C 214.34375 166.972656 219.316406 177.75 221.390625 183.136719 C 223.046875 182.308594 225.121094 181.894531 227.609375 181.894531 C 230.09375 181.894531 232.167969 182.308594 234.242188 183.550781 C 235.898438 178.164062 241.285156 166.972656 252.480469 166.140625 C 252.894531 165.3125 254.136719 166.554688 254.136719 167.800781 Z M 254.136719 167.800781 " fill-opacity="1" fill-rule="nonzero"/><path fill="#7d177c" d="M 261.597656 193.914062 C 260.355469 193.5 259.523438 193.914062 258.695312 195.15625 L 254.550781 205.519531 L 245.433594 207.59375 C 245.433594 206.347656 245.433594 205.105469 245.433594 203.863281 L 228.4375 203.863281 L 228.4375 235.78125 C 233.410156 234.949219 237.972656 230.804688 240.871094 224.171875 L 247.503906 225.832031 C 247.503906 225.003906 248.75 239.925781 248.75 240.753906 C 248.75 241.996094 249.992188 242.824219 251.234375 242.824219 C 252.0625 242.410156 253.308594 241.582031 253.308594 240.339844 C 253.308594 241.582031 251.648438 224.585938 251.648438 224.171875 C 251.648438 223.34375 250.820312 222.515625 249.992188 222.101562 L 242.117188 220.027344 C 242.945312 217.539062 243.773438 215.054688 244.1875 212.152344 C 244.1875 212.152344 244.1875 212.152344 244.601562 212.152344 C 244.601562 212.152344 245.019531 212.152344 245.019531 212.152344 L 255.792969 209.664062 C 256.210938 209.664062 257.039062 208.835938 257.039062 208.421875 L 262.011719 196.816406 C 262.839844 195.570312 262.425781 194.328125 261.597656 193.914062 Z M 261.597656 193.914062 " fill-opacity="1" fill-rule="nonzero"/></svg>